<?xml version="1.0" encoding="utf-8"?>
<!-- Generator: Adobe Illustrator 24.0.3, SVG Export Plug-In . SVG Version: 6.00 Build 0)  -->
<svg version="1.1" id="Layer_1" xmlns="http://www.w3.org/2000/svg" xmlns:xlink="http://www.w3.org/1999/xlink" x="0px" y="0px"
	 viewBox="0 0 140 140" style="enable-background:new 0 0 140 140;" xml:space="preserve">
<path d="M56.5,0.7C55.6,1.4,54.3,3,52.6,5c-1.1,1.4-2,2.5-3.3,4l-0.8,1l-2.7,0.1c-1.5,0.1-3,0.1-3.3,0.2c-3.7,0.7-7.1,1.5-8.6,2.2
	c-0.4,0.2-0.9,0.4-1.1,0.4c-0.2,0-2.2-1.1-4.3-2.4c-3.4-2.1-5.5-3.2-6.8-3.6c-0.5-0.1-1,0.5-1.1,1.2c-0.1,3.3,0.6,7.6,1.9,11
	c0.4,1.2,0.5,1.4,0.3,1.9c-1,2.7-1.8,6.3-2.1,9.9c-0.1,1-0.3,2.5-0.5,3.2c-1.2,4.9,1.2,8.4,7.4,10.8c3.2,1.3,6.8,1.9,11.2,2.1
	l3.3,0.1l0.7,1.8c0.4,1,0.9,2.7,1.2,3.9c0.4,1.8,0.5,2.5,0.5,4.4c0,3.5-0.9,10-1.6,11.1c-1,1.6-4,2.7-6.4,2.2
	c-0.4-0.1-1.5-0.2-2.5-0.2c-2.1-0.1-3.4,0.1-5,1c-3.1,1.7-5,3.8-8.7,9.4c-0.5,0.8-1.5,2.2-2.1,3L17,85.2l-1-0.1
	c-1.3-0.2-2-0.6-2.9-1.7c-1.9-2.7-2.8-3.5-4-3.6c-1.1-0.1-1.8,0.4-2.4,1.7c-0.4,0.8-0.5,1.3-0.5,2.5C6,86.8,7,89.7,8.8,91.7
	c1.4,1.5,2.1,1.8,5,1.7c2,0,7.7-0.2,9.3-0.3c0.4,0,2.1-0.1,3.7-0.2c1.6-0.1,3-0.2,3-0.2c0,0,1.6-0.1,3.4-0.2
	c1.8-0.1,3.4-0.2,3.4-0.2c0,0,2-0.1,4.3-0.2C47,92,57.7,92,61,92.3c2.8,0.2,8.5,0.8,8.9,1c0.1,0,0.8,0.2,1.5,0.3
	c2,0.4,4.7,1.1,4.7,1.4c0,0.1-0.2,0.3-0.4,0.4c-0.7,0.4-2.1,1.9-2.5,2.8c-0.9,2-0.6,3.9,0.8,5c1.2,0.9,1.1,0.9,10.8,1.5
	c1.9,0.1,3.7,0.2,4,0.3c0.3,0,1.2,0.1,2,0.2c1.7,0.1,2,0.2,6.6,0.6c1.9,0.2,4,0.4,4.6,0.5c0.6,0.1,2.8,0.4,5,0.6
	c5.5,0.7,8.7,0.5,12.7-0.7c1.4-0.4,3.6-1.3,4.6-1.8c0.4-0.2,0.7-0.3,0.8-0.3c0.3,0.2,0.2,4.1-0.1,5.6c-0.7,3.5-2.5,6.1-5.3,7.6
	c-1.8,1-2.8,1.3-5.2,1.6c-1.8,0.3-5.4,0.2-6.5-0.1c-0.4-0.1-1.6-0.4-2.7-0.6c-3.3-0.7-8.1-2.6-11.2-4.3c-0.7-0.4-1.2-0.7-1.3-0.7
	c-0.1,0-0.6-0.3-1.2-0.6c-5.2-2.6-7.6-3.7-12.6-5.6c-2.7-1-4.7-1.7-6.1-2c-4-1-5.5-1.3-6.5-1.4c-0.7-0.1-2-0.3-2.9-0.4
	c-2.1-0.3-7.2-0.1-9.1,0.3c-6.2,1.3-10.9,4.3-13.7,8.8c-1.9,3.1-2.9,8.7-2.2,12.4c0.8,4.2,2.2,7.2,4.8,10c0.6,0.7,1.6,1.6,2.1,2
	c2.1,1.6,5.6,3.1,7.2,3.1c1.1,0,2.4-0.9,2.9-2c0.4-0.8,0.4-2.3-0.1-3.2c-0.5-1.1-1.1-1.6-3-2.3c-2.3-0.8-3.3-1.5-4.7-3.1
	c-2.3-2.6-3.2-5.9-2.7-9.6c0.8-5.7,6.5-9.2,14.9-9.2c2.4,0,5.5,0.3,6.9,0.7c0.3,0.1,0.9,0.2,1.4,0.3c0.5,0.1,1.1,0.2,1.4,0.3
	c0.3,0.1,0.9,0.3,1.4,0.4c2.2,0.6,8.9,2.9,10.3,3.7c0.5,0.2,2.1,0.9,3.9,1.7c0.4,0.2,1.2,0.6,1.8,0.9c0.6,0.3,1.4,0.7,1.8,0.9
	c0.4,0.2,1.3,0.6,2,1c3.1,1.6,5.8,2.8,7.6,3.5c2.6,0.9,6.5,2,8,2.1c0.4,0.1,1.2,0.2,1.7,0.3c1.1,0.2,6,0.2,7.3,0
	c3.8-0.7,5.6-1.3,8-2.7c1-0.6,3.2-2.4,4-3.4c0.9-1,2-2.8,2.7-4.5c0.5-1,0.9-2.5,1.5-5.2c0.5-2.2,0.4-6.7-0.3-10.3
	c-0.2-1.4-0.3-1.2,0.9-3.2c1.2-1.9,1.6-2.8,2.2-4.4c2.7-7.7,2.2-18-1.3-25.5c-2.6-5.5-6.6-10.1-11.7-13c-5.4-3.2-9.1-3.9-14.8-2.7
	c-5.3,1-9.2,3.1-18.3,9.7C84,64.1,82.7,65,80.6,66c-1.8,0.9-3.6,1.6-5.6,2c-6,1.3-13.8-2.5-18.9-9.2c-2.8-3.7-4.4-7.2-5.3-11.5
	c-0.4-2.1-0.4-2.1,1.1-2.6c6.7-2.3,13.3-7.4,15.4-12c0.5-1,0.5-1.2,0.5-2.9c0-1.7,0-1.9-0.5-3.1c-0.3-0.7-0.6-1.4-0.8-1.5
	c-0.1-0.1-0.8-1.4-1.4-2.9c-1.7-3.7-2.9-5.8-4.6-8L60,13.4l0-2.3c0-4.1-0.6-8.1-1.6-10.3C57.9-0.1,57.5-0.2,56.5,0.7L56.5,0.7z"/>
</svg>
