<?xml version="1.0" encoding="utf-8"?>
<!-- Generator: Adobe Illustrator 24.1.0, SVG Export Plug-In . SVG Version: 6.00 Build 0)  -->
<svg version="1.1" id="Layer_1" xmlns="http://www.w3.org/2000/svg" xmlns:xlink="http://www.w3.org/1999/xlink" x="0px" y="0px"
	 viewBox="0 0 500 500" style="enable-background:new 0 0 500 500;" xml:space="preserve">
<style type="text/css">
	.st0{fill:#A5EA4A;}
	.st1{fill:#0F1026;stroke:#000000;stroke-width:2;stroke-miterlimit:10;}
	.st2{fill:#0F1026;}
	.st3{fill:none;stroke:#000000;stroke-miterlimit:10;}
	.st4{fill:#F7F3EE;}
	.st5{fill:none;}
</style>
<g>
	<g>
		<g>
			<g>
				<g>
					<path class="st0" d="M452.5,4.5c-56.2,33.8-118.8,126-118.8,126c-64,1.1-93.1,2.2-154,0c0,0-62.6-92.3-118.8-126
						C41.6-7.1,32.6,32.7,36,53.9c3.3,21.2,19.5,78.1,17,93c-7,41.8,4.4,55.8,10.7,74.9C27.9,324.7,96.7,428.8,203.5,473.6
						c41.2,17.5,64.4,17.5,105.6,0C415.3,429,483.8,326.1,449.3,223.1c6.4-19.7,18-34.5,11.1-76.2c-2.5-14.9,13.7-71.8,17-93
						C480.7,32.7,471.8-7.1,452.5,4.5z"/>
					<path class="st1" d="M256.3,489c-83,0-245.6-119.5-195.1-267.2c-6.4-19.2-17.5-33.3-10.5-75.3c2.4-14.2-13.8-71.5-17-92.3
						c-3.7-23.8,6.9-64.7,28.5-51.7c41.8,25.1,91.4,86,118.8,125.7c63.5,2.1,87.8,1,151.4,0c27.5-39.8,77-100.6,118.8-125.7
						c21.6-13,32.2,28,28.5,51.7c-3.3,20.9-19.4,78.1-17,92.3c7,42-4.4,57.1-10.9,76.6C501.4,373.2,335.7,489,256.3,489z M54.3,4.7
						c-12.2,0-18.8,30.8-16,48.8c3.3,21.4,19.6,78.2,17,93.7c-8.5,51.1,12.8,68.7,10.6,75.3C32.4,319,90.7,423.7,204.4,471.4
						c21.4,9.1,36.9,12.9,51.9,12.9c72.2,0,241.4-109.7,190.8-260.6c-2.4-7.1,19.5-25.3,11-76.6c-2.6-15.6,13.7-72.3,17-93.7
						c2.8-18.1-3.8-48.8-16-48.8c-13.6,0-76.3,57.6-123.5,127.1c-0.9,1.3-0.4,1-1.9,1c-63.1,1-90.9,2.3-155.3,0
						C129,59.9,67.3,4.7,54.3,4.7z"/>
				</g>
				<g>
					<g>
						<path class="st2" d="M61.8,221c5.6-10.1,12.6-21,23.7-31c9.5-8.5-7.7,4.5-19.8,32.8L61.8,221z"/>
					</g>
				</g>
				<g>
					<g>
						<path class="st2" d="M447.9,222.8c-4.5-10.6-10.2-21.8-20.1-32.5c-7.9-8.7,5.6,4.9,5.8,5.2c8.5,9.3,12.5,15.2,18.1,25.5
							L447.9,222.8z"/>
					</g>
				</g>
			</g>
			<g>
				<g>
					<g>
						<g>
							<path class="st2" d="M361.5,137.9c11.9-13.9,11.8-21.6,14.8-29.8c8.1-22.7,36-63.9,56.5-78.1c5-3.4,23.1-8.7,25.3-16.3
								c1.6,0.3-0.8,6-17,14c-5.8,2.8-6.9,3.3-12.3,8.1c-16.3,13.7-40,54.1-48.3,73.9c-1.9,4.2-5.7,18.8-17.2,27.5
								C361.5,138.5,361.9,138.4,361.5,137.9z"/>
							<path class="st3" d="M361.5,137.9c11.9-13.9,11.8-21.6,14.8-29.8c8.1-22.7,36-63.9,56.5-78.1c5-3.4,23.1-8.7,25.3-16.3
								c1.6,0.3-0.8,6-17,14c-5.8,2.8-6.9,3.3-12.3,8.1c-16.3,13.7-40,54.1-48.3,73.9c-1.9,4.2-5.7,18.8-17.2,27.5
								C361.5,138.5,361.9,138.4,361.5,137.9z"/>
						</g>
					</g>
					<g>
						<g>
							<path class="st2" d="M151.8,138.3c-10.4-8.2-13.4-15-17.6-25.8C126.2,90.9,95.8,39.1,75,28.9c-6.2-3-18.5-8.9-20-15.1
								c0.6-0.1,0.4-0.2,0.6,0.3c1.5,6.3,22.2,13.8,25.1,15.8c20.9,14.4,46.2,53.1,55.5,75.1c3.6,9.2,4.8,20.4,14.8,31.5
								C152.4,138.2,152.2,137.8,151.8,138.3z"/>
							<path class="st3" d="M151.8,138.3c-10.4-8.2-13.4-15-17.6-25.8C126.2,90.9,95.8,39.1,75,28.9c-6.2-3-18.5-8.9-20-15.1
								c0.6-0.1,0.4-0.2,0.6,0.3c1.5,6.3,22.2,13.8,25.1,15.8c20.9,14.4,46.2,53.1,55.5,75.1c3.6,9.2,4.8,20.4,14.8,31.5
								C152.4,138.2,152.2,137.8,151.8,138.3z"/>
						</g>
					</g>
				</g>
			</g>
		</g>
		<g>
			<g>
				<g>
					<g>
						<g>
							<g>
								<g>
									<g>
										<g>
											<path class="st4" d="M409.6,274.5c3.8,28.1-37.9,57.2-76.6,40.5c-7.8-3.3-20.4-9-18.6-14.7
												C331.4,247.4,407,255.8,409.6,274.5z"/>
										</g>
									</g>
									<g>
										<g>
											<path d="M362.5,264c-28.1,2.3-40.1,23.9-46.3,37.4c4,6.9,29.7,20.2,50.1,15.7c34.2-7.6,39.4-31.8,37.2-48
												C397.5,267.2,388.3,261.9,362.5,264z M413.5,265.7c-0.5,37.8-35.1,67.3-79.4,52.4c-8.6-3.2-13.6-7.8-17.9-4.2
												c-6.6,5.7-5.3,14.5-9.1,14.5c-9.4,0,2.4-37.3,16.2-50.4c8.6-8.2,23.5-19.9,52.6-19.9
												C392.6,258.2,413.5,265.7,413.5,265.7z"/>
										</g>
									</g>
								</g>
							</g>
							<g>
								<g>
									<path class="st2" d="M366.1,311.6c-23.5,4.2-35.5-32.3-30.2-39.5c16.5-9.9,17.7-10,37.4-11.3
										C386.6,273.6,383,308.5,366.1,311.6z"/>
								</g>
							</g>
						</g>
						<g>
							<g>
								<g>
									<g>
										<g>
											<path class="st4" d="M100.7,274.5c-3.8,28.1,37.9,57.2,76.6,40.5c7.8-3.3,20.4-9,18.6-14.7
												C178.9,247.4,103.2,255.8,100.7,274.5z"/>
										</g>
									</g>
									<g>
										<g>
											<path d="M106.8,269.1c-2.2,16.2,3,40.4,37.2,48c20.4,4.5,46.1-8.8,50.1-15.7c-6.2-13.4-18.2-35.1-46.3-37.4
												C121.9,261.9,112.8,267.2,106.8,269.1z M187,278c13.7,13.1,25.5,50.4,16.2,50.4c-3.8,0-2.5-8.8-9.1-14.5
												c-4.2-3.7-9.3,1-17.9,4.2c-44.1,14.9-78.9-14.4-79.4-52.4C128.1,254.4,161.6,253.8,187,278z"/>
										</g>
									</g>
								</g>
							</g>
							<g>
								<g>
									<path class="st2" d="M144.1,311.6c23.5,4.2,35.5-32.3,30.2-39.5c-16.5-9.9-17.7-10-37.4-11.3
										C123.7,273.6,127.3,308.5,144.1,311.6z"/>
								</g>
							</g>
						</g>
					</g>
				</g>
			</g>
		</g>
	</g>
</g>
<line class="st5" x1="252.9" y1="160.3" x2="256" y2="160.3"/>
</svg>
