<?xml version="1.0" encoding="utf-8"?>
<!-- Generator: Adobe Illustrator 24.1.0, SVG Export Plug-In . SVG Version: 6.00 Build 0)  -->
<svg version="1.1" id="Layer_1" xmlns="http://www.w3.org/2000/svg" xmlns:xlink="http://www.w3.org/1999/xlink" x="0px" y="0px"
	 viewBox="0 0 500 500" style="enable-background:new 0 0 500 500;" xml:space="preserve">
<style type="text/css">
	.st0{fill:#0F1026;}
	.st1{fill:#5F2D90;}
	.st2{fill:#8558A3;}
	.st3{fill:#F7F3EE;}
	.st4{fill:#EF4845;}
	.st5{fill:#F5F3ED;}
</style>
<rect x="0" y="0" class="st0" width="500" height="500"/>
<g>
	<g>
		<g>
			<g>
				<path class="st1" d="M274.6,477.3c-4.3,4.2-8.8,8-10.4,9.3l-1-17C264.5,470.6,269.4,474.1,274.6,477.3z"/>
				<path class="st1" d="M250,478.6c5.4,4.2,7.8,5.8,11.3,8.2l-0.8-17C256.6,473.2,255,474.6,250,478.6z"/>
			</g>
			<g>
				<path class="st1" d="M299,473.6c-2.4,2.8-5.2,6-9.3,10.4l-2.8-16.8C291.8,469.9,295.4,471.8,299,473.6z"/>
				<path class="st1" d="M274.6,477.3c4.6,2.8,7.4,4.5,12.1,7.1l-2.6-16.8C280.5,471.4,278.4,473.7,274.6,477.3z"/>
			</g>
			<g>
				<path class="st1" d="M322.8,467.3c-3.3,4.8-5.8,8.2-8.1,11.3l-4.6-16.4C316,464.8,319.8,466.2,322.8,467.3z"/>
				<path class="st1" d="M299,473.6c3.3,1.6,8.8,4.2,12.2,5.6c0.8,0.3,1.2,2.7-3.8-16.2C304,467.5,300.5,471.7,299,473.6z"/>
			</g>
			<g>
				<path class="st1" d="M345.9,458.7c-2,3.7-4.3,7.9-6.6,11.5c-0.5,0.7,0.6,2.9-6.6-15.3C338.1,456.6,343.4,458,345.9,458.7z"/>
				<path class="st1" d="M322.8,467.3c5.5,2,9.6,3.3,13.3,4.4l-6.1-15.9C326.8,461.3,324.6,464.6,322.8,467.3z"/>
			</g>
			<g>
				<path class="st1" d="M367.9,447.7c-2.1,5.4-4.4,10.1-5.6,12.7l-8-15.1C356.1,445.6,361.9,446.8,367.9,447.7z"/>
				<path class="st1" d="M345.9,458.7c6,1.5,11.3,2.6,13.7,3l-7.8-15.2C350,450.5,348,454.6,345.9,458.7z"/>
			</g>
			<g>
				<path class="st1" d="M388.5,434.5c-1.4,4.8-2.5,8.4-4.2,13.2l-9.6-14.2C378.6,433.9,382.3,434.2,388.5,434.5z"/>
				<path class="st1" d="M367.9,447.7c5.8,0.8,7,1,13.4,1.6c0.9,0.1,2,2.2-8.8-14.3C371.1,439.4,368.9,445.1,367.9,447.7z"/>
			</g>
			<g>
				<path class="st1" d="M407.7,419.3c-0.7,3.9-1.5,8.4-2.7,13.5c-12.7-15.1-11.3-13.1-10.4-13.1
					C396.9,419.7,401.9,419.6,407.7,419.3z"/>
				<path class="st1" d="M388.5,434.5c3.7,0.1,7.3,0.3,14.1,0.2l-10.9-13.3C390.7,426.2,389.9,429.7,388.5,434.5z"/>
			</g>
			<g>
				<path class="st1" d="M425.2,402.2c-0.3,4.8-0.7,9-1.3,13.7L411.5,404C414.4,403.7,419.1,403.2,425.2,402.2z"/>
				<path class="st1" d="M407.7,419.3c4.9-0.3,9.2-0.7,14-1.3l-12.2-12.1C409.2,409.2,408.7,413.5,407.7,419.3z"/>
			</g>
			<g>
				<path class="st1" d="M440.7,383.4c0.2,3.6,0.3,7.2,0.2,13.8l-13.6-10.6C432.3,385.6,435.8,384.7,440.7,383.4z"/>
				<path class="st1" d="M425.2,402.2c3.7-0.6,8.6-1.5,13.8-2.7c-15.4-12.4-13.4-11-13.4-10.2C425.6,393.1,425.4,398,425.2,402.2z"
					/>
			</g>
			<g>
				<path class="st1" d="M454.2,363.2c0.8,5.7,1,6.9,1.6,13.1c0.1,0.9,2.3,2-14.6-8.6C445.8,366.3,451.6,364.1,454.2,363.2z"/>
				<path class="st1" d="M440.7,383.4c4.9-1.3,8.5-2.4,13.5-4.1l-14.5-9.4C440.1,373.7,440.4,377.3,440.7,383.4z"/>
			</g>
			<g>
				<path class="st1" d="M465.4,341.6c1.6,5.9,2.6,11.1,3.1,13.5l-15.5-7.6C457.1,345.7,461.2,343.8,465.4,341.6z"/>
				<path class="st1" d="M454.2,363.2c5.5-2.1,10.3-4.3,12.9-5.4l-15.4-7.8C452.1,351.7,453.3,357.3,454.2,363.2z"/>
			</g>
			<g>
				<path class="st1" d="M474.3,319.1c2.1,5.5,3.4,9.4,4.5,13.1l-16.3-6C468.2,323,471.5,320.9,474.3,319.1z"/>
				<path class="st1" d="M465.4,341.6c3.8-2,8.1-4.2,11.8-6.4c0.7-0.4,3,0.6-15.7-6.5C463.4,334,464.7,339.2,465.4,341.6z"/>
			</g>
			<g>
				<path class="st1" d="M480.6,295.7c1.6,3.3,4.3,8.6,5.7,12c0.3,0.8,2.8,1.2-16.6-3.7C474.4,300.7,478.6,297.3,480.6,295.7z"/>
				<path class="st1" d="M474.3,319.1c4.9-3.2,8.2-5.5,11.5-8l-16.8-4.5C471.7,312.4,473.1,316.1,474.3,319.1z"/>
			</g>
			<g>
				<path class="st1" d="M484.5,271.9c2.9,4.5,4.6,7.2,7.2,11.8l-17.2-2.5C478.4,277.7,480.7,275.5,484.5,271.9z"/>
				<path class="st1" d="M480.6,295.7c2.9-2.3,6.2-5.1,10.6-9.1l-17.1-2.7C476.9,288.6,478.9,292.2,480.6,295.7z"/>
			</g>
			<g>
				<path class="st1" d="M485.8,247.7c4.3,5.3,6,7.7,8.4,11l-17.4-0.8C480.3,254.2,481.7,252.7,485.8,247.7z"/>
				<path class="st1" d="M484.5,271.9c4.3-4.2,8.2-8.6,9.5-10.1l-17.3-1C477.6,262,481.2,266.8,484.5,271.9z"/>
			</g>
			<path class="st1" d="M494.3,247.7c-1.8,137.5-111,237.6-244.3,239.2v3.6c140.1-1.7,246.2-107.7,248-242.7H494.3z"/>
			<path class="st1" d="M473.5,247.7C471.8,373.9,371.8,465,250,466.6v3.6c129.3-1.6,225.6-99.3,227.2-222.4H473.5z"/>
		</g>
		<g>
			<g>
				<path class="st1" d="M15.4,271.9c-4.3-4.2-8.2-8.6-9.5-10.1l17.3-1C22.3,262,18.7,266.8,15.4,271.9z"/>
				<path class="st1" d="M14.2,247.7c-4.3,5.3-6,7.7-8.4,11l17.4-0.8C19.6,254.2,18.2,252.7,14.2,247.7z"/>
			</g>
			<g>
				<path class="st1" d="M19.3,295.7c-2.9-2.3-6.2-5.1-10.6-9.1l17.1-2.7C23.1,288.6,21.1,292.2,19.3,295.7z"/>
				<path class="st1" d="M15.4,271.9c-2.9,4.5-4.6,7.2-7.2,11.8l17.2-2.5C21.5,277.7,19.2,275.5,15.4,271.9z"/>
			</g>
			<g>
				<path class="st1" d="M25.7,319.1c-4.9-3.2-8.4-5.7-11.5-8l16.8-4.5C28.3,312.4,26.8,316.1,25.7,319.1z"/>
				<path class="st1" d="M19.3,295.7c-1.6,3.3-4.3,8.6-5.7,12c-0.3,0.8-2.8,1.2,16.6-3.7C25.5,300.7,21.3,297.3,19.3,295.7z"/>
			</g>
			<g>
				<path class="st1" d="M34.5,341.6c-3.8-2-8.1-4.2-11.8-6.4c-0.7-0.4-3,0.6,15.7-6.5C36.5,334.1,35.1,339.3,34.5,341.6z"/>
				<path class="st1" d="M25.7,319.1c-2.1,5.4-3.4,9.4-4.5,13.1l16.3-6C31.8,323,28.4,320.9,25.7,319.1z"/>
			</g>
			<g>
				<path class="st1" d="M45.7,363.2c-5.5-2.1-10.3-4.3-12.9-5.4l15.4-7.8C47.8,351.7,46.6,357.3,45.7,363.2z"/>
				<path class="st1" d="M34.5,341.6c-1.6,5.9-2.6,11.1-3.1,13.5l15.5-7.6C42.9,345.7,38.6,343.8,34.5,341.6z"/>
			</g>
			<g>
				<path class="st1" d="M59.2,383.4c-4.9-1.3-8.6-2.4-13.5-4.1l14.5-9.4C59.8,373.7,59.5,377.3,59.2,383.4z"/>
				<path class="st1" d="M45.7,363.2c-0.8,5.7-1,6.9-1.6,13.1c-0.1,0.9-2.3,2,14.6-8.6C54.1,366.3,48.4,364.2,45.7,363.2z"/>
			</g>
			<g>
				<path class="st1" d="M74.7,402.2c-3.9-0.7-8.6-1.5-13.8-2.7c15.4-12.4,13.4-11,13.4-10.2C74.3,391.6,74.4,396.4,74.7,402.2z"/>
				<path class="st1" d="M59.2,383.4c-0.2,3.6-0.3,7.2-0.2,13.8l13.6-10.6C67.6,385.6,64.1,384.7,59.2,383.4z"/>
			</g>
			<g>
				<path class="st1" d="M92.2,419.3c-4.9-0.3-9.2-0.7-14-1.3l12.2-12.1C90.7,409.3,91.2,413.6,92.2,419.3z"/>
				<path class="st1" d="M74.7,402.2c0.3,4.8,0.7,9,1.3,13.7L88.4,404C85,403.6,80.6,403.2,74.7,402.2z"/>
			</g>
			<g>
				<path class="st1" d="M111.4,434.5c-3.7,0.1-7.3,0.3-14.1,0.2l10.9-13.3C109.2,426.2,110,429.7,111.4,434.5z"/>
				<path class="st1" d="M92.2,419.3c0.7,3.9,1.5,8.4,2.7,13.5c12.7-15.1,11.3-13.1,10.4-13.1C101.5,419.7,96.5,419.5,92.2,419.3z"
					/>
			</g>
			<g>
				<path class="st1" d="M132,447.7c-5.8,0.8-7,1-13.4,1.6c-0.9,0.1-2,2.2,8.8-14.3C128.8,439.4,131,445.1,132,447.7z"/>
				<path class="st1" d="M111.4,434.5c1.4,4.8,2.5,8.4,4.2,13.2l9.6-14.2C121.3,433.9,117.6,434.2,111.4,434.5z"/>
			</g>
			<g>
				<path class="st1" d="M154,458.7c-6,1.5-11.3,2.6-13.7,3l7.8-15.2C149.9,450.5,151.9,454.6,154,458.7z"/>
				<path class="st1" d="M132,447.7c2.1,5.4,4.4,10.1,5.6,12.7l8-15.1C143.8,445.6,138,446.8,132,447.7z"/>
			</g>
			<g>
				<path class="st1" d="M177.1,467.3c-5.6,2-9.6,3.3-13.3,4.4l6.1-15.9C173.1,461.3,175.3,464.6,177.1,467.3z"/>
				<path class="st1" d="M154,458.7c2,3.7,4.3,7.9,6.6,11.5c0.5,0.7-0.6,2.9,6.6-15.3C161.7,456.7,156.4,458,154,458.7z"/>
			</g>
			<g>
				<path class="st1" d="M200.9,473.6c-3.3,1.6-8.8,4.2-12.2,5.6c-0.8,0.3-1.2,2.7,3.8-16.2C195.9,467.5,199.4,471.7,200.9,473.6z"
					/>
				<path class="st1" d="M177.1,467.3c3.3,4.8,5.8,8.2,8.1,11.3l4.6-16.4C183.9,464.8,180.2,466.2,177.1,467.3z"/>
			</g>
			<g>
				<path class="st1" d="M225.3,477.3c-4.6,2.8-7.4,4.5-12.1,7.1l2.6-16.8C219.4,471.4,221.6,473.7,225.3,477.3z"/>
				<path class="st1" d="M200.9,473.6c2.3,2.8,5.2,6,9.3,10.4l2.8-16.8C208.2,469.9,204.5,471.8,200.9,473.6z"/>
			</g>
			<g>
				<path class="st1" d="M250,478.6c-5.4,4.2-7.8,5.8-11.3,8.2l0.8-17C243.4,473.2,244.9,474.6,250,478.6z"/>
				<path class="st1" d="M225.3,477.3c4.3,4.2,8.8,8,10.4,9.3l1-17C235.4,470.6,230.5,474.1,225.3,477.3z"/>
			</g>
			<path class="st1" d="M250,486.9c-115.9-1.4-204.8-74-234.8-172.9c-6.5-21.6-9.2-44.1-9.5-66.3H2c1.7,136.6,109.5,241,248,242.7
				V486.9z"/>
			<path class="st1" d="M250,466.6C121.2,465,28,367.1,26.4,247.7h-3.6C24.4,372.9,123,468.5,250,470.1V466.6z"/>
		</g>
		<g>
			<g>
				<path class="st1" d="M225.3,18.2c4.3-4.2,8.8-8,10.4-9.3l1,17C235.4,24.9,230.5,21.4,225.3,18.2z"/>
				<path class="st1" d="M250,16.9c-5.4-4.2-7.8-5.8-11.3-8.2l0.8,17C243.4,22.2,244.9,20.9,250,16.9z"/>
			</g>
			<g>
				<path class="st1" d="M200.9,21.9c2.3-2.8,5.2-6,9.3-10.4l2.8,16.8C208.3,25.7,204.7,23.7,200.9,21.9z"/>
				<path class="st1" d="M225.3,18.2c-4.6-2.8-7.4-4.5-12.1-7.1l2.6,16.8C219.4,24,221.6,21.8,225.3,18.2z"/>
			</g>
			<g>
				<path class="st1" d="M177.1,28.2c3.2-4.8,5.6-8,8.1-11.3l4.6,16.4C183.9,30.7,180.1,29.3,177.1,28.2z"/>
				<path class="st1" d="M200.9,21.9c-3.3-1.6-8.8-4.2-12.2-5.6c-0.8-0.3-1.2-2.7,3.8,16.2C195.9,27.9,199.4,23.8,200.9,21.9z"/>
			</g>
			<g>
				<path class="st1" d="M154,36.8c2-3.7,4.3-7.9,6.6-11.5c0.5-0.7-0.6-2.9,6.6,15.3C161.7,38.8,156.4,37.4,154,36.8z"/>
				<path class="st1" d="M177.1,28.2c-5.6-2-9.6-3.3-13.3-4.4l6.1,15.9C173.1,34.1,175.3,30.9,177.1,28.2z"/>
			</g>
			<g>
				<path class="st1" d="M132,47.8c2.1-5.4,4.4-10.1,5.6-12.7l8,15.1C143.8,49.9,138,48.6,132,47.8z"/>
				<path class="st1" d="M154,36.8c-6-1.5-11.3-2.6-13.7-3l7.8,15.2C149.9,45,151.9,40.9,154,36.8z"/>
			</g>
			<g>
				<path class="st1" d="M111.4,61c1.4-4.8,2.5-8.4,4.2-13.2l9.6,14.2C121.3,61.6,117.6,61.3,111.4,61z"/>
				<path class="st1" d="M132,47.8c-5.8-0.8-7-1-13.4-1.6c-0.9-0.1-2-2.2,8.8,14.3C128.8,56,131,50.4,132,47.8z"/>
			</g>
			<g>
				<path class="st1" d="M92.2,76.2c0.6-3.3,1.4-8,2.7-13.5c12.7,15.1,11.3,13.1,10.4,13.1C103,75.8,98,75.9,92.2,76.2z"/>
				<path class="st1" d="M111.4,61c-3.7-0.1-7.3-0.3-14.1-0.2l10.9,13.3C109.2,69.3,110,65.8,111.4,61z"/>
			</g>
			<g>
				<path class="st1" d="M74.7,93.3c0.3-4.8,0.7-9,1.3-13.7l12.4,11.9C84.5,91.9,80.3,92.4,74.7,93.3z"/>
				<path class="st1" d="M92.2,76.2c-4.9,0.3-9.2,0.7-14,1.3l12.2,12.1C90.8,85.8,91.2,81.7,92.2,76.2z"/>
			</g>
			<g>
				<path class="st1" d="M59.2,112.1c-0.1-3.6-0.3-7.2-0.2-13.8l13.6,10.6C67.6,109.9,64.1,110.8,59.2,112.1z"/>
				<path class="st1" d="M74.7,93.3c-4,0.7-8.6,1.5-13.8,2.7c15.5,12.4,13.4,11,13.4,10.2C74.3,102.5,74.5,97.6,74.7,93.3z"/>
			</g>
			<g>
				<path class="st1" d="M45.7,132.3c-0.8-5.7-1-6.9-1.6-13.1c-0.1-0.9-2.3-2,14.6,8.6C54.1,129.2,48.4,131.3,45.7,132.3z"/>
				<path class="st1" d="M59.2,112.1c-4.9,1.3-8.5,2.4-13.5,4.1l14.5,9.4C59.8,121.9,59.5,118.2,59.2,112.1z"/>
			</g>
			<g>
				<path class="st1" d="M34.5,153.8c-1.6-5.9-2.6-11.1-3.1-13.5l15.5,7.6C42.8,149.8,38.6,151.7,34.5,153.8z"/>
				<path class="st1" d="M45.7,132.3c-5.5,2.1-10.3,4.3-12.9,5.4l15.4,7.8C47.8,143.8,46.6,138.2,45.7,132.3z"/>
			</g>
			<g>
				<path class="st1" d="M25.7,176.4c-2.1-5.4-3.4-9.4-4.5-13.1l16.3,6C31.8,172.5,28.4,174.6,25.7,176.4z"/>
				<path class="st1" d="M34.5,153.8c-3.8,2-8.1,4.2-11.8,6.4c-0.7,0.4-3-0.6,15.7,6.5C36.5,161.4,35.1,156.2,34.5,153.8z"/>
			</g>
			<g>
				<path class="st1" d="M19.3,199.7c-1.6-3.3-4.3-8.6-5.7-12c-0.3-0.8-2.8-1.2,16.6,3.7C25.4,194.8,21.2,198.2,19.3,199.7z"/>
				<path class="st1" d="M25.7,176.4c-5,3.2-8.4,5.7-11.5,8l16.8,4.5C28.3,183.1,26.8,179.4,25.7,176.4z"/>
			</g>
			<g>
				<path class="st1" d="M15.4,223.6c-2.9-4.5-4.6-7.2-7.2-11.8l17.2,2.5C21.5,217.8,19.2,219.9,15.4,223.6z"/>
				<path class="st1" d="M19.3,199.7c-2.9,2.3-6.2,5.1-10.6,9.1l17.1,2.7C23.2,207.1,21.2,203.5,19.3,199.7z"/>
			</g>
			<g>
				<path class="st1" d="M14.2,247.7c-4.3-5.3-6-7.7-8.4-11l17.4,0.8C19.6,241.3,18.2,242.8,14.2,247.7z"/>
				<path class="st1" d="M15.4,223.6c-4.3,4.2-8.2,8.6-9.5,10.1l17.3,1C22.3,233.5,18.7,228.7,15.4,223.6z"/>
			</g>
			<path class="st1" d="M5.6,247.7C7.1,135.5,80,47.6,182.2,17.9c21.8-6.3,44.6-9,67.7-9.3V5C111.3,6.7,3.7,111.5,2,247.7H5.6z"/>
			<path class="st1" d="M26.4,247.7C28.1,121.6,128.1,30.4,250,28.9v-3.6C121.8,27,24.4,123.7,22.8,247.7H26.4z"/>
		</g>
		<g>
			<g>
				<path class="st1" d="M484.5,223.6c4.3,4.2,8.2,8.6,9.5,10.1l-17.3,1C477.6,233.5,481.2,228.7,484.5,223.6z"/>
				<path class="st1" d="M485.8,247.7c4.2-5.3,6-7.7,8.4-11l-17.4,0.8C480.3,241.3,481.7,242.8,485.8,247.7z"/>
			</g>
			<g>
				<path class="st1" d="M480.6,199.7c2.9,2.3,6.1,5.1,10.6,9.1l-17.1,2.7C476.9,206.9,478.8,203.3,480.6,199.7z"/>
				<path class="st1" d="M484.5,223.6c2.9-4.5,4.6-7.2,7.2-11.8l-17.2,2.5C478.5,217.8,480.8,219.9,484.5,223.6z"/>
			</g>
			<g>
				<path class="st1" d="M474.3,176.4c4.9,3.2,8.4,5.7,11.5,8l-16.8,4.5C471.7,183,473.1,179.4,474.3,176.4z"/>
				<path class="st1" d="M480.6,199.7c1.6-3.3,4.3-8.6,5.7-12c0.3-0.8,2.8-1.2-16.6,3.7C474.5,194.8,478.7,198.2,480.6,199.7z"/>
			</g>
			<g>
				<path class="st1" d="M465.4,153.8c3.8,2,8.1,4.2,11.8,6.4c0.7,0.4,3-0.6-15.7,6.5C463.4,161.4,464.8,156.2,465.4,153.8z"/>
				<path class="st1" d="M474.3,176.4c2.1-5.5,3.4-9.4,4.5-13.1l-16.3,6C468.2,172.5,471.5,174.6,474.3,176.4z"/>
			</g>
			<g>
				<path class="st1" d="M454.2,132.3c5.5,2.1,10.3,4.3,12.9,5.4l-15.4,7.8C452.1,143.8,453.3,138.2,454.2,132.3z"/>
				<path class="st1" d="M465.4,153.8c1.6-5.9,2.6-11.1,3.1-13.5L453,148C457.1,149.8,461.3,151.7,465.4,153.8z"/>
			</g>
			<g>
				<path class="st1" d="M440.7,112.1c4.9,1.3,8.5,2.4,13.5,4.1l-14.5,9.4C440.1,121.8,440.4,118.2,440.7,112.1z"/>
				<path class="st1" d="M454.2,132.3c0.8-5.7,1-6.9,1.6-13.1c0.1-0.9,2.3-2-14.6,8.6C445.8,129.2,451.5,131.3,454.2,132.3z"/>
			</g>
			<g>
				<path class="st1" d="M425.2,93.3c3.4,0.6,8.2,1.4,13.8,2.7c-15.5,12.4-13.4,11-13.4,10.2C425.6,103.9,425.5,99,425.2,93.3z"/>
				<path class="st1" d="M440.7,112.1c0.2-3.6,0.3-7.2,0.2-13.8l-13.6,10.6C432.3,109.9,435.9,110.8,440.7,112.1z"/>
			</g>
			<g>
				<path class="st1" d="M407.7,76.2c4.9,0.3,9.2,0.7,14,1.3l-12.2,12.1C409.1,85.8,408.7,81.7,407.7,76.2z"/>
				<path class="st1" d="M425.2,93.3c-0.3-4.7-0.7-9-1.3-13.7l-12.4,11.9C415,91.9,419.4,92.3,425.2,93.3z"/>
			</g>
			<g>
				<path class="st1" d="M388.5,61c3.7-0.1,7.3-0.3,14.1-0.2l-10.9,13.3C390.7,69.2,389.9,65.7,388.5,61z"/>
				<path class="st1" d="M407.7,76.2c-0.7-3.8-1.5-8.4-2.7-13.5c-12.7,15.1-11.3,13.1-10.4,13.1C398.4,75.8,403.4,76,407.7,76.2z"/>
			</g>
			<g>
				<path class="st1" d="M367.9,47.8c5.9-0.8,7-1,13.4-1.6c0.9-0.1,2-2.2-8.8,14.3C371.1,56.1,368.9,50.4,367.9,47.8z"/>
				<path class="st1" d="M388.5,61c-1.4-4.8-2.5-8.4-4.2-13.2L374.8,62C378.6,61.6,382.3,61.3,388.5,61z"/>
			</g>
			<g>
				<path class="st1" d="M345.9,36.8c6-1.5,11.3-2.6,13.7-3L351.8,49C350,44.9,348,40.8,345.9,36.8z"/>
				<path class="st1" d="M367.9,47.8c-2.1-5.4-4.4-10.1-5.6-12.7l-8,15.1C356.1,49.9,361.9,48.7,367.9,47.8z"/>
			</g>
			<g>
				<path class="st1" d="M322.8,28.2c5.5-2,9.6-3.3,13.3-4.4L330,39.6C326.8,34.1,324.6,30.9,322.8,28.2z"/>
				<path class="st1" d="M345.9,36.8c-2-3.7-4.3-7.9-6.6-11.5c-0.5-0.7,0.6-2.9-6.6,15.3C338.2,38.8,343.5,37.4,345.9,36.8z"/>
			</g>
			<g>
				<path class="st1" d="M299,21.9c3.3-1.6,8.8-4.2,12.2-5.6c0.8-0.3,1.2-2.7-3.8,16.2C304,28,300.6,23.8,299,21.9z"/>
				<path class="st1" d="M322.8,28.2c-3.3-4.8-5.8-8.2-8.1-11.3l-4.6,16.4C316,30.7,319.8,29.3,322.8,28.2z"/>
			</g>
			<g>
				<path class="st1" d="M274.6,18.2c4.6-2.8,7.4-4.5,12.1-7.1l-2.6,16.8C280.6,24.1,278.4,21.8,274.6,18.2z"/>
				<path class="st1" d="M299,21.9c-2.4-2.8-5.2-6-9.3-10.4l-2.8,16.8C291.5,25.7,295.2,23.8,299,21.9z"/>
			</g>
			<g>
				<path class="st1" d="M250,16.9c5.4-4.2,7.8-5.8,11.3-8.2l-0.8,17C256.5,22.2,255,20.9,250,16.9z"/>
				<path class="st1" d="M274.6,18.2c-4.3-4.2-8.8-8-10.4-9.3l-1,17C264.5,24.9,269.4,21.4,274.6,18.2z"/>
			</g>
			<path class="st1" d="M250,8.6c140.6,1.7,242.7,108.8,244.3,239.2h3.6C496.2,112.2,389.4,6.7,250,5V8.6z"/>
			<path class="st1" d="M250,28.9c128.9,1.6,222,99.6,223.5,218.8h3.6C475.5,122,376.4,26.9,250,25.3V28.9z"/>
		</g>
	</g>
</g>
<g>
	<g>
		<g>
			<g>
				<g>
					<path class="st2" d="M372,85.7c-35.4,21.3-75,79.5-75,79.5c-40.4,0.7-58.8,1.4-97.2,0c0,0-39.5-58.2-75-79.5
						c-12.2-7.3-17.8,17.8-15.7,31.2c2.1,13.4,12.3,49.3,10.7,58.7c-4.4,26.4,2.8,35.2,6.7,47.3c-22.5,64.9,20.9,130.6,88.2,158.9
						c26,11,40.6,11,66.6,0c67-28.1,110.3-93.1,88.5-158.1c4-12.4,11.4-21.7,7-48.1c-1.6-9.4,8.6-45.3,10.7-58.7
						C389.8,103.5,384.1,78.4,372,85.7z"/>
					<path class="st0" d="M248.1,391.4c-52.4,0-155-75.4-123.1-168.6c-4.1-12.1-11-21-6.6-47.5c1.5-9-8.7-45.1-10.7-58.2
						c-2.3-15,4.4-40.8,18-32.6c26.4,15.9,57.7,54.2,75,79.3c40.1,1.4,55.4,0.7,95.6,0c17.4-25.1,48.6-63.5,75-79.3
						c13.6-8.2,20.3,17.7,18,32.6c-2.1,13.2-12.2,49.3-10.7,58.2c4.4,26.5-2.8,36-6.9,48.3C402.8,318.4,298.3,391.4,248.1,391.4z
						 M120.7,85.8c-7.7,0-11.8,19.5-10.1,30.8c2.1,13.5,12.4,49.3,10.7,59.1c-5.4,32.2,8.1,43.4,6.7,47.5
						c-21.1,60.9,15.7,126.9,87.4,157c13.5,5.7,23.3,8.2,32.7,8.2c45.6,0,152.3-69.2,120.4-164.4c-1.5-4.5,12.3-16,6.9-48.3
						c-1.6-9.8,8.6-45.6,10.7-59.1c1.8-11.4-2.4-30.8-10.1-30.8c-8.6,0-48.2,36.4-77.9,80.2c-0.5,0.8-0.2,0.6-1.2,0.7
						c-39.8,0.6-57.4,1.4-98,0C167.8,120.7,128.9,85.8,120.7,85.8z"/>
				</g>
				<g>
					<g>
						<path class="st0" d="M125.4,222.3c3.5-6.4,7.9-13.3,15-19.6c6-5.4-4.9,2.8-12.5,20.7L125.4,222.3z"/>
					</g>
				</g>
				<g>
					<g>
						<path class="st0" d="M290.9,164.1c16.6-0.7,29.7,8.1,42,19.2c5.5,5-5.1-4.8-14.6-9.9c-9.2-4.9-16.6-7.5-27.2-6.5L290.9,164.1z
							"/>
					</g>
				</g>
				<g>
					<g>
						<path class="st0" d="M369.1,223.5c-2.8-6.7-6.5-13.7-12.7-20.5c-5-5.5,3.5,3.1,3.7,3.3c5.4,5.9,7.9,9.6,11.4,16.1L369.1,223.5
							z"/>
					</g>
				</g>
				<g>
					<g>
						<path class="st0" d="M203.3,166.7c-16.3,0-27.7,6.7-40.2,16.8c-5.5,4.5,5.4-5.4,13.4-10.7c9.7-5.9,15.8-8.2,26.8-8.8
							L203.3,166.7z"/>
					</g>
				</g>
			</g>
			<g>
				<g>
					<g>
						<g>
							<path class="st0" d="M314.5,169.9c7.5-8.8,7.4-13.7,9.4-18.8c5.1-14.3,22.7-40.3,35.7-49.3c3.1-2.2,14.5-5.5,16-10.3
								c1,0.2-0.5,3.8-10.7,8.8c-3.7,1.7-4.4,2.1-7.8,5.1c-10.3,8.6-25.2,34.1-30.5,46.6c-1.2,2.6-3.6,11.9-10.9,17.4
								C314.6,170.3,314.8,170.2,314.5,169.9z"/>
						</g>
					</g>
					<g>
						<g>
							<path class="st0" d="M182.2,170.1c-6.6-5.2-8.4-9.4-11.1-16.3c-5.1-13.6-24.2-46.3-37.4-52.7c-3.9-1.9-11.7-5.6-12.6-9.5
								c0.4-0.1,0.3-0.1,0.4,0.2c0.9,4,14,8.7,15.8,10c13.2,9.1,29.2,33.5,35,47.4c2.3,5.8,3.1,12.9,9.3,19.9
								C182.6,170.1,182.5,169.8,182.2,170.1z"/>
						</g>
					</g>
					<g>
						<g>
							<path class="st0" d="M322,169.4c9.7-19.1,21.7-25.1,35.4-25.9c6.1-0.2-2.8,0.2-5.4,0.8c-8,1.8-14.3,5.2-21,13
								C326.5,162.5,322.3,169.6,322,169.4z"/>
						</g>
					</g>
					<g>
						<g>
							<path class="st0" d="M332.8,142.1c5.8-9.1,13.5-12.4,23.6-11.6c4.5,0.4-4.3-0.6-10.3,1.5C338,135.2,333.2,142.4,332.8,142.1z
								"/>
						</g>
					</g>
					<g>
						<g>
							<path class="st0" d="M341.9,126c2.6-5,9.4-9,14.8-9.5c0,0.6-2.8-0.5-9.4,4.7C341.5,126.3,342.1,126.2,341.9,126z"/>
						</g>
					</g>
					<g>
						<g>
							<path class="st0" d="M174.7,169.5c-9.2-13.3-16.5-23.5-33-25.6c-2.8-0.4-4.5-0.2-4.5-0.4c11.2,0.1,18.8,3.2,26.2,10.1
								C169.2,159,175,169.3,174.7,169.5z"/>
						</g>
					</g>
					<g>
						<g>
							<path class="st0" d="M164,142.2c-6.7-6.6-10.8-11.9-23.5-11.5c-3.9,0.1,2.1-0.7,6.7-0.1C159.1,132.6,164.1,142.1,164,142.2z"
								/>
						</g>
					</g>
					<g>
						<g>
							<path class="st0" d="M154.8,126.1c-1.3-1.2-0.2-0.4-5.4-4.8c-6.7-5.3-9.4-4.1-9.4-4.7C148.6,117.2,155.5,125.5,154.8,126.1z"
								/>
						</g>
					</g>
				</g>
			</g>
		</g>
		<g>
			<g>
				<g>
					<g>
						<g>
							<path class="st3" d="M292.2,340.6c40.7,0.5,68.8,6.3,130.7,39c31.6,17-4.6-3.1-36.7-17.6c-25-11.2-43.3-17.9-87.4-21
								C291.7,340.6,292.2,340.8,292.2,340.6z"/>
						</g>
					</g>
					<g>
						<g>
							<path class="st3" d="M204.8,340.7c-45.6,1.6-73.9,9.5-130.7,39.1c-32.8,17.4,7-4.6,36.5-18.1c23.7-10.8,44.7-18.9,87.6-20.9
								C205.5,340.5,204.8,340.6,204.8,340.7z"/>
						</g>
					</g>
				</g>
			</g>
			<g>
				<g>
					<g>
						<g>
							<path class="st3" d="M279.4,335.9c26.7-3.5,67.1-4.6,97.6,0.9c15.4,2.8,45,12.5,56.2,19.9c4.1,2.6,5.4,4.6,5.1,4.7
								c-1.8-5.7-40.4-22.7-76.6-26.3C320.6,331,279.4,336.3,279.4,335.9z"/>
						</g>
					</g>
					<g>
						<g>
							<path class="st3" d="M282.4,344.8c21.3,1.7,52.1,7.7,73.2,18.4c17.7,9.3,40,22.9,56.6,33.3c17.8,11.3-10.9-7.2-46.3-27.2
								c-11-5.9-23.1-14-60.7-21C289.2,345.4,282.4,345,282.4,344.8z"/>
						</g>
					</g>
					<g>
						<g>
							<path class="st3" d="M217.6,336c-24.5-2.7-67.6-4-97.5,1.2c-16.1,2.8-56.1,15.4-61.4,24.1c0,0.1,2.7-6.1,27.5-14.8
								c20.2-7.3,46.3-16.2,105.7-12.9C204.6,334.4,217.6,335.8,217.6,336z"/>
						</g>
					</g>
					<g>
						<g>
							<path class="st3" d="M214.5,344.9c-20.5,2.1-52.7,8.6-73,18.8c-17.3,9-40.2,22.8-56.8,33c-17.8,11.1,11.1-7.7,46-27.6
								c11-6,23.8-14.6,60.8-21.1C202.8,345.9,214.5,344.7,214.5,344.9z"/>
						</g>
					</g>
				</g>
			</g>
			<g>
				<g>
					<g>
						<rect x="246.3" y="340.6" class="st0" width="3" height="14.2"/>
					</g>
				</g>
				<g>
					<g>
						<path class="st0" d="M228.8,365.1c7.5-0.4,15.7-3.9,17.2-10.5c0.6-2.4-0.9-2,3.2-1.8C248,361.8,238.2,365.7,228.8,365.1z"/>
					</g>
				</g>
				<g>
					<g>
						<path class="st0" d="M266.7,365.7c-12.1,0.8-19.6-5.5-20.4-11.9c-0.1-0.4-0.5-0.3,2.9-0.5
							C249.4,361.1,258.6,365.3,266.7,365.7z"/>
					</g>
				</g>
				<g>
					<g>
						<path class="st0" d="M268.7,321.5c-1.6-6-14.9,0.3-20.9,0.3c-6.1,0-19.3-6.4-20.9-0.3c-0.5,1.7,3.5,5.3,7,5.5
							c2.7,0.1,1.9-1.6,3.4-1.6c3.3,0,5,3.2,5,5.7c0,4.1,1.1,7.4,3,9.1c0.6,0.8,4.3,0.8,4.9,0c1.9-1.7,3-4.9,3-9.1
							c0-2.4,1.8-5.7,5-5.7c1.5,0,0.8,1.8,3.4,1.6C265.2,326.8,269.2,323.2,268.7,321.5z"/>
					</g>
				</g>
				<g>
					<g>
						<g>
							<g>
								<g>
									<g>
										<g>
											<path class="st3" d="M336.9,262.9c2,15-20.1,30.4-40.8,21.6c-4.1-1.8-10.9-4.8-9.9-7.8
												C295.3,248.5,335.6,253,336.9,262.9z"/>
										</g>
									</g>
									<g>
										<g>
											<path class="st0" d="M311.8,257.3c-15,1.2-21.4,12.7-24.6,19.9c2.1,3.7,15.8,10.8,26.7,8.3c18.2-4.1,21-16.9,19.8-25.5
												C330.5,259,325.6,256.2,311.8,257.3z M339,258.3c-0.3,20.1-18.7,35.8-42.3,27.9c-4.6-1.7-7.3-4.2-9.5-2.2
												c-3.5,3-2.8,7.7-4.8,7.7c-5,0,1.3-19.8,8.6-26.8c4.6-4.4,12.5-10.6,28-10.6C327.9,254.2,339,258.3,339,258.3z"/>
										</g>
									</g>
								</g>
							</g>
							<g>
								<g>
									<path class="st0" d="M313.8,282.6c-12.5,2.2-18.9-17.2-16.1-21c8.8-5.2,9.4-5.3,19.9-6C324.7,262.4,322.7,281,313.8,282.6z
										"/>
								</g>
							</g>
							<g>
								<g>
									<path class="st3" d="M312.7,261.8c0,3-5.5,3-5.5,0C307.2,258.8,312.7,258.8,312.7,261.8z"/>
								</g>
							</g>
						</g>
						<g>
							<g>
								<g>
									<g>
										<g>
											<path class="st3" d="M159,262.9c-2,15,20.1,30.4,40.8,21.6c4.1-1.8,10.9-4.8,9.9-7.8C200.7,248.5,160.4,253,159,262.9z"
												/>
										</g>
									</g>
									<g>
										<g>
											<path class="st0" d="M162.3,260c-1.2,8.6,1.6,21.5,19.8,25.5c10.8,2.4,24.5-4.7,26.7-8.3c-3.3-7.1-9.7-18.7-24.6-19.9
												C170.3,256.2,165.5,259,162.3,260z M205,264.8c7.3,7,13.6,26.8,8.6,26.8c-2,0-1.3-4.7-4.8-7.7c-2.3-2-5,0.5-9.5,2.2
												c-23.5,7.9-42-7.6-42.3-27.9C173.6,252.2,191.5,251.9,205,264.8z"/>
										</g>
									</g>
								</g>
							</g>
							<g>
								<g>
									<path class="st0" d="M182.2,282.6c12.5,2.2,18.9-17.2,16.1-21c-8.8-5.2-9.4-5.3-19.9-6C171.3,262.4,173.2,281,182.2,282.6z
										"/>
								</g>
							</g>
							<g>
								<g>
									<path class="st3" d="M183.2,261.8c0,3,5.5,3,5.5,0C188.7,258.8,183.2,258.8,183.2,261.8z"/>
								</g>
							</g>
						</g>
					</g>
					<g>
						<g>
							<g>
								<g>
									<path class="st0" d="M335.6,257c13.3,1,22.6,0.1,31.1-9.9c3.7-4.5,5.8-9.3,4.9-7.3c-7.6,17.1-17.5,20.9-36.1,21.2
										L335.6,257z"/>
								</g>
							</g>
							<g>
								<g>
									<path class="st0" d="M336.6,260.1c10.8-1.6,19.6,5.4,22.1,16.6c0.6,2.7-1.1-7.8-10.6-12.2c-2.8-1.3-6-1.8-9.5-1.1
										C337,263.7,337.6,264.6,336.6,260.1z"/>
								</g>
							</g>
							<g>
								<g>
									<path class="st4" d="M366.6,261.8c0,5.1-7.8,5.1-7.8,0C358.8,256.8,366.6,256.7,366.6,261.8z"/>
								</g>
							</g>
							<g>
								<g>
									<g>
										<path class="st4" d="M283.5,299.4c0,5.1-7.8,5.1-7.8,0C275.7,294.4,283.5,294.3,283.5,299.4z"/>
									</g>
								</g>
							</g>
							<g>
								<g>
									<path class="st0" d="M161.5,261c-13.9-0.2-23.9-2.1-31.9-13.4c-2.5-3.7-5.1-9.6-4.2-7.9c8.9,15.9,18.3,18.6,35.9,17.3
										L161.5,261z"/>
								</g>
							</g>
							<g>
								<g>
									<path class="st0" d="M159.6,263.7c-8-2.2-17.2,1.8-21.3,13c-1.2,3.4,2.8-19.4,22.1-16.6L159.6,263.7z"/>
								</g>
							</g>
							<g>
								<g>
									<g>
										<path class="st5" d="M330.1,244.2c0,5.1-7.8,5.1-7.8,0C322.3,239.2,330.1,239.2,330.1,244.2z"/>
									</g>
									<g>
										<path class="st5" d="M166.8,244.2c0,5.1,7.8,5.1,7.8,0C174.7,239.2,166.8,239.2,166.8,244.2z"/>
									</g>
								</g>
							</g>
							<g>
								<g>
									<g>
										<path class="st4" d="M130.3,261.8c0,5.1,7.8,5.1,7.8,0C138.2,256.8,130.3,256.7,130.3,261.8z"/>
									</g>
								</g>
							</g>
							<g>
								<g>
									<path class="st4" d="M213.4,299.4c0,5.1,7.8,5.1,7.8,0C221.3,294.4,213.4,294.3,213.4,299.4z"/>
								</g>
							</g>
						</g>
						<g>
							<g>
								<g>
									<path class="st3" d="M226.7,287.1c0.2-52-50.1-70.8-78.5-63.6c-5.9,1.4-10.4,3.4-6.8,1.5c28.3-14.7,74.1,3.6,83.8,42.7
										C227.4,276.5,227.3,287.2,226.7,287.1z"/>
								</g>
							</g>
						</g>
						<g>
							<g>
								<g>
									<path class="st3" d="M270,287.1c-2.2-53,53.2-78.8,85.5-62.1c3.7,1.9-1-0.1-6.8-1.5c-23.1-5.9-65.3,6-76.1,44.4
										C269.3,279.7,270.8,287.1,270,287.1z"/>
								</g>
							</g>
						</g>
					</g>
				</g>
			</g>
		</g>
	</g>
	<g>
		<g>
			<g>
				<path class="st4" d="M254.4,184.2c0,8.5-13.2,8.6-13.2,0C241.2,175.6,254.4,175.6,254.4,184.2z"/>
			</g>
		</g>
	</g>
	<g>
		<g>
			<path class="st3" d="M286.2,176.9c-9.2,38.9-66.2,39-75.3,0c-8.6,25.1,10.5,51.3,37.7,51.3C275.7,228.2,294.8,202.1,286.2,176.9z
				"/>
		</g>
	</g>
</g>
</svg>
