<?xml version="1.0" encoding="utf-8"?>
<!-- Generator: Adobe Illustrator 24.1.0, SVG Export Plug-In . SVG Version: 6.00 Build 0)  -->
<svg version="1.1" id="Layer_1" xmlns="http://www.w3.org/2000/svg" xmlns:xlink="http://www.w3.org/1999/xlink" x="0px" y="0px"
	 viewBox="0 0 4500 4500" style="enable-background:new 0 0 4500 4500;" xml:space="preserve">
<style type="text/css">
	.st0{fill:#0F1026;}
	.st1{fill:#F8F4EF;}
	.st2{fill:#5F2D91;}
	.st3{fill:#8759A4;}
	.st4{fill:#F04845;}
	.st5{fill:#F6F4EE;}
</style>
<rect x="0" class="st0" width="4500" height="4500"/>
<g>
	<g>
		<path class="st1" d="M4329.5,4329.5h-4159v-4159h4159V4329.5z M190.5,4309.5h4119v-4119h-4119V4309.5z"/>
	</g>
</g>
<polygon class="st1" points="1725.2,3442.1 1720.3,3421.4 1699.6,3416.5 1720.3,3411.7 1725.2,3390.9 1730.1,3411.7 1750.8,3416.5 
	1730.1,3421.4 "/>
<polygon class="st1" points="634.9,483.4 625.5,443.7 585.8,434.4 625.5,425 634.9,385.3 644.2,425 683.9,434.4 644.2,443.7 "/>
<polygon class="st1" points="1126,3984.5 1116.7,3944.8 1077,3935.5 1116.7,3926.2 1126,3886.4 1135.3,3926.2 1175,3935.5 
	1135.3,3944.8 "/>
<polygon class="st1" points="3166.3,434.4 3156.9,394.6 3117.2,385.3 3156.9,376 3166.3,336.3 3175.6,376 3215.3,385.3 
	3175.6,394.6 "/>
<polygon class="st1" points="3844.1,498.2 3838.1,472.7 3812.7,466.7 3838.1,460.7 3844.1,435.3 3850.1,460.7 3875.6,466.7 
	3850.1,472.7 "/>
<polygon class="st1" points="445.2,875.6 439.2,850.1 413.7,844.1 439.2,838.2 445.2,812.7 451.1,838.2 476.6,844.1 451.1,850.1 "/>
<polygon class="st1" points="301.2,1658.1 295.2,1632.7 269.7,1626.7 295.2,1620.7 301.2,1595.2 307.1,1620.7 332.6,1626.7 
	307.1,1632.7 "/>
<polygon class="st1" points="3497.2,1689.6 3491.2,1664.1 3465.8,1658.1 3491.2,1652.2 3497.2,1626.7 3503.2,1652.2 3528.7,1658.1 
	3503.2,1664.1 "/>
<polygon class="st1" points="4122,2518.5 4116.1,2493.1 4090.6,2487.1 4116.1,2481.1 4122,2455.6 4128,2481.1 4153.5,2487.1 
	4128,2493.1 "/>
<polygon class="st1" points="1831.5,4123.5 1825.6,4098 1800.1,4092.1 1825.6,4086.1 1831.5,4060.6 1837.5,4086.1 1863,4092.1 
	1837.5,4098 "/>
<polygon class="st1" points="2854,4146.1 2848,4120.7 2822.5,4114.7 2848,4108.7 2854,4083.2 2859.9,4108.7 2885.4,4114.7 
	2859.9,4120.7 "/>
<polygon class="st1" points="1410,402.3 1404.1,376.8 1378.6,370.9 1404.1,364.9 1410,339.4 1416,364.9 1441.5,370.9 1416,376.8 "/>
<polygon class="st1" points="3087.3,3584.8 3078,3545.1 3038.3,3535.8 3078,3526.5 3087.3,3486.8 3096.7,3526.5 3136.4,3535.8 
	3096.7,3545.1 "/>
<polygon class="st1" points="4031.2,1259.9 4021.9,1220.2 3982.2,1210.9 4021.9,1201.6 4031.2,1161.8 4040.5,1201.6 4080.3,1210.9 
	4040.5,1220.2 "/>
<g>
	<g>
		<path class="st1" d="M2354.6,3402c28.9,137.1,49.7,389.5,42.6,533.5C2369.2,3802.5,2347.5,3549.7,2354.6,3402z"/>
		<path class="st1" d="M2201.5,1485.3c36.3,312.2,118,1223,142.4,1782C2307.5,2954.5,2226,2045.5,2201.5,1485.3z"/>
		<path class="st1" d="M2102.7,249.4c41.5,290.8,76.9,826.1,76.9,826.3c20.2,369.1,16.9,367.9-21.6,1.7
			C2158,1077.3,2108,547.3,2102.7,249.4z"/>
		<path class="st1" d="M2572,3345.2c34.4,59.9,65.5,175.9,65,246.9C2601.5,3530.9,2571.4,3415.8,2572,3345.2z"/>
		<path class="st1" d="M2015.5,1190.3c51.9,165.8,99.9,332.8,145.8,500.3c23,83.8,335.9,1348,375,1517.2
			C2414.4,2797.4,2362.8,2577.9,2015.5,1190.3z"/>
		<path class="st1" d="M1831.5,477c56.7,145.6,131.3,412.7,150.6,584.7C1936.3,932.2,1855,638.8,1831.5,477z"/>
		<path class="st1" d="M2916.8,3542.6c44.4,54.5,91.9,162.5,101.9,231.4C2974.4,3719.5,2927,3610.8,2916.8,3542.6z"/>
		<path class="st1" d="M2657.4,2983.7c75.2,109.6,166.9,306.3,203.1,432.8C2793.5,3311,2695.1,3098.9,2657.4,2983.7z"/>
		<path class="st1" d="M1876,1274c120.7,248.5,612.6,1284.1,725.7,1587.7c-61.6-131.9-128.8-260.8-195.1-390.3
			C2258.1,2139.4,2004.5,1597.2,1876,1274z"/>
		<path class="st1" d="M1699.6,891.1c48,60.3,103.8,180.6,118.5,257C1769.8,1087.6,1714.4,967.3,1699.6,891.1z"/>
		<path class="st1" d="M1481.2,411c57.6,85.1,135.1,254.4,161.9,357.4C1582.2,680.1,1507.8,516.2,1481.2,411z"/>
		<path class="st1" d="M2987.3,3162.5c41.5,27.9,87.8,94.5,99,143.7C3044.3,3278.1,2998.6,3211.1,2987.3,3162.5z"/>
		<path class="st1" d="M1831.2,1484.6c9.4,12.8,679.8,942.1,1079.3,1566.4C2711.1,2781.7,2152.9,1987,1831.2,1484.6z"/>
		<path class="st1" d="M1313.6,733.5c122,147,330.7,445.8,436.8,634C1614.6,1203.9,1409.6,903.6,1313.6,733.5z"/>
		<path class="st1" d="M3358,3217.2c62.4,37.5,151.7,127.2,189.5,192.4C3483.7,3371.3,3395.1,3281.1,3358,3217.2z"/>
		<path class="st1" d="M2929.2,2782c97.2,73.1,250.8,227.9,325,329.8C3153.3,3036,3000.9,2880.2,2929.2,2782z"/>
		<path class="st1" d="M1863.1,1699.7c199.3,184.5,676.7,657.4,975.6,990.3C2506.7,2383.1,2027.3,1882.6,1863.1,1699.7z"/>
		<path class="st1" d="M1173.5,999.7c156.5,134.7,437,416.3,585.2,594.1C1606.5,1462.9,1323.9,1179.8,1173.5,999.7z"/>
		<path class="st1" d="M952.5,775.3c45.2,24.7,107.7,68.3,117.2,118.9C1026.6,864.7,965.7,819.8,952.5,775.3z"/>
		<path class="st1" d="M3453.5,2952.6c41.3,5.1,96.6,40.3,118.5,77.8C3530.8,3024.8,3475.3,2988.7,3453.5,2952.6z"/>
		<path class="st1" d="M945.4,1164.3c287.2,169.8,960.2,669.2,1031.6,718.8c156.3,108.7,137.8,76.8,180,125
			c19.1,21.8,27,26.9,22.6,23.6c97.6,66.9,1057,758.6,1153.4,827.1c-283.8-180.6-1170-805.1-1170.1-805.2
			c-20.3-17.2-32.5-36.2-50.5-51.6c16.6,11.8-77.3-45.1-150.9-96.8C1792.2,1786.4,1187.8,1323.9,945.4,1164.3z"/>
		<path class="st1" d="M3854.6,2855.4c25.3-8.3,55.7,5.9,65.2,31C3894.2,2894.9,3864,2880.3,3854.6,2855.4z"/>
		<path class="st1" d="M3090.4,2496.2c175.3,63.3,478.8,206.3,635.9,298.2C3555.8,2735.4,3260.3,2598.5,3090.4,2496.2z"/>
		<path class="st1" d="M1261.5,1622.4c144.9,60.4,288.2,124.4,430.7,190.2c71.2,32.9,1127.6,550.7,1267.8,621.4
			C2590.2,2278.5,2422.7,2192,1261.5,1622.4z"/>
		<path class="st1" d="M580.3,1298.5c154.6,52.8,416.8,177.3,557.8,265.2C985.3,1510.6,717.5,1382.9,580.3,1298.5z"/>
		<path class="st1" d="M3460.9,2428.3c80.3,3.1,214.4,39.7,285.6,78.4C3665.2,2503.8,3532,2467,3460.9,2428.3z"/>
		<path class="st1" d="M1396.9,1854.6c0.1,0,1342.8,346.3,1933.6,537.8C3330.3,2392.3,1965.2,2033.4,1396.9,1854.6z"/>
		<path class="st1" d="M840.5,1703.4c114.8,12.2,311.4,64.7,420.6,114C1143.8,1804.6,944.6,1749.9,840.5,1703.4z"/>
		<path class="st1" d="M3917,2250c48.1-13.6,128.7-5.8,173.6,17.4C4041.5,2281.5,3961,2272.7,3917,2250z"/>
		<path class="st1" d="M3165,2176.1c164-2.5,451.4,25,617.1,60.6C3621.9,2238.4,3322.3,2209,3165,2176.1z"/>
		<path class="st1" d="M1066.9,1980c578.5,28.3,1956.6,182.7,1956.7,182.7c-163.7-7.7-327.2-19.1-490.4-32.3
			C2451.5,2123.7,1229.7,1998.7,1066.9,1980z"/>
		<path class="st1" d="M409.4,1917.5c128.5-2.2,370.4,18,396.6,22.8c44.2,8.7,84.9,23.3,129.3,27.2c-44.3,7.8-89.8-1.4-132.5-5.8
			C782.6,1960,575,1958.4,409.4,1917.5z"/>
		<path class="st1" d="M3267.5,2011.1c112.4-26.9,318.4-44.3,438.6-35.1C3588.6,2004.3,3383,2019.9,3267.5,2011.1z"/>
		<path class="st1" d="M1250.8,2172.3c329.9-37.7,1292.1-123.6,1882.6-150.5C2802.8,2059.7,1839.8,2145.4,1250.8,2172.3z"/>
		<path class="st1" d="M715.3,2215.1c104.2-26.5,291.4-42.1,401.5-32.1C1010.7,2210.1,823.4,2224.8,715.3,2215.1z"/>
		<path class="st1" d="M3514.7,1765.7c130.7-52.6,381.1-119.3,524.7-138.4C3911.7,1679.3,3665.6,1745.9,3514.7,1765.7z"/>
		<path class="st1" d="M1252,2351.2c176-50.3,1947.3-506.8,2125.2-549.5C2733.1,1997.2,1670.9,2257.7,1252,2351.2z"/>
		<path class="st1" d="M633.5,2512.6c121.8-50.4,349.5-111,487.3-127.3C993.5,2437.8,762.5,2497,633.5,2512.6z"/>
		<path class="st1" d="M460.6,2557.5c7.3-20.9,28-26.4,44.6-11.6C497.9,2567,477.2,2572.3,460.6,2557.5z"/>
		<path class="st1" d="M3153.5,1678.1c119.8-74.8,346.8-179.3,485.2-221.8C3522.5,1528.5,3290.2,1635.6,3153.5,1678.1z"/>
		<path class="st1" d="M1287.1,2532c0.1-0.1,1168.8-556.7,1743.9-797.6C3009.4,1745.2,2030.3,2226.9,1287.1,2532z"/>
		<path class="st1" d="M777,2765.9c91.4-61.5,270.5-144.6,381.2-174.8C1063.4,2655.1,883.5,2736.8,777,2765.9z"/>
		<path class="st1" d="M3616.6,1150.8c59.4-56.3,110.8-99.2,155.9-107.4C3736.4,1087.2,3673.5,1147.3,3616.6,1150.8z"/>
		<path class="st1" d="M3168.7,1460.6c76.5-75.2,229.6-181.7,328.5-227.6C3419.2,1309.9,3265.6,1415.6,3168.7,1460.6z"/>
		<path class="st1" d="M1211.5,2809.1c151.6-110.2,1695-1171.7,1851.3-1275.1C2509.1,1947.7,1581.3,2571.2,1211.5,2809.1z"/>
		<path class="st1" d="M727.6,3141.5c85-80.6,254.6-197.8,362.8-249.4C1003.3,2974.4,831.2,3091.7,727.6,3141.5z"/>
		<path class="st1" d="M3020.6,1332.8c81.6-98.9,263.9-291.5,390.3-384C3319,1060.7,3141.1,1244.8,3020.6,1332.8z"/>
		<path class="st1" d="M1478,2857.5c30.1-29.6,53.1-64.9,82.3-95.8c0.1-0.1,1227.8-1211.1,1260.1-1237.6
			c62.5-51.2,80.1-58.6,93.5-83.4c-18.3,40.1-73.2,62.5-177.8,177.5c-470.8,517.6-1170.5,1148.4-1170.6,1148.6
			C1535.5,2795.8,1510.1,2830.1,1478,2857.5z"/>
		<path class="st1" d="M1150.6,3170.6c40.6-66,132.3-154.7,199.6-192.8C1310,3041.4,1214.6,3133.1,1150.6,3170.6z"/>
		<path class="st1" d="M3117.8,872.8c37.2-88.4,142.9-221.4,204.1-286.8C3286.1,679.9,3184.1,806.4,3117.8,872.8z"/>
		<path class="st1" d="M1670.4,2907.1c4.1-6.2,952-1375.8,1366.7-1920.9C3032.3,993.4,2086.2,2360.3,1670.4,2907.1z"/>
		<path class="st1" d="M1336.6,3376.3c51.8-103.8,171.2-272.8,255-358.4C1537.9,3125.6,1417.2,3293.8,1336.6,3376.3z"/>
		<path class="st1" d="M1178.2,3599c10.5-46.3,54.5-108.9,95.5-134.2C1263.1,3512,1218.3,3574,1178.2,3599z"/>
		<path class="st1" d="M2764.7,1016.6c20.2-85.6,85-226.5,139-299C2883.2,807.2,2818.1,945.4,2764.7,1016.6z"/>
		<path class="st1" d="M1912.4,2797.8c25.8-58.4,494.7-1082.7,793-1654.9C2575,1443,2179.3,2291.6,1912.4,2797.8z"/>
		<path class="st1" d="M1665.5,3315.5c31.4-108.2,116.1-288,182.9-384.1C1816,3042,1728.8,3223.7,1665.5,3315.5z"/>
		<path class="st1" d="M2707.4,435.5c-8.5-38.4,7.4-96.6,34.6-125.3C2750.6,348.8,2734.3,406.9,2707.4,435.5z"/>
		<path class="st1" d="M2600.6,838.3c1.1-75,34.3-203,69.8-269C2670.2,647.5,2637.6,771.3,2600.6,838.3z"/>
		<path class="st1" d="M2043.7,2840.2c44.8-187.5,85.6-403.8,149-588.4c74.4-216.6,80.5-338.5,371.8-1280
			c-6.6,28.3-306.1,1169-348.9,1288C2146.1,2453.4,2104.5,2644.6,2043.7,2840.2z"/>
		<path class="st1" d="M1758,3874.7c46.6-248.3,166-669.1,246.6-892.8C1969,3161.2,1847.2,3617.7,1758,3874.7z"/>
		<path class="st1" d="M2353.1,1008.1c0.5-107.1,15.7-409.3,52.2-578.1C2409.2,589.8,2391.7,851.1,2353.1,1008.1z"/>
		<path class="st1" d="M2117,3476.4c9.8-97.3,209.9-2237.5,223.3-2334.3C2159.2,3216.8,2160.2,3216.7,2117,3476.4z"/>
	</g>
</g>
<g>
	<g>
		<g>
			<g>
				<path class="st2" d="M2425.6,3763.2c-30.9,30.7-62.8,58.3-73.8,67.9l-7.1-123.5C2353.9,3714.2,2388.6,3739.8,2425.6,3763.2z"/>
				<path class="st2" d="M2250,3772.3c38.4,30.2,55.8,42.5,80.4,60l-5.6-123.6C2297,3733.5,2285.8,3743.4,2250,3772.3z"/>
			</g>
			<g>
				<path class="st2" d="M2599.3,3735.8c-16.9,20.6-37.2,44-66.3,75.3l-20-122.1C2547.8,3709.2,2574.1,3723.3,2599.3,3735.8z"/>
				<path class="st2" d="M2425.6,3763.2c32.7,20.7,52.5,32.5,86.2,51.4l-18.5-122.4C2467.9,3720.4,2452.3,3736.7,2425.6,3763.2z"/>
			</g>
			<g>
				<path class="st2" d="M2769.2,3690.4c-23.4,35.3-41.3,59.8-58,81.9l-32.7-119.3C2720.7,3672,2747.4,3682.1,2769.2,3690.4z"/>
				<path class="st2" d="M2599.3,3735.8c23.7,11.7,62.6,30.4,87.1,40.4c5.7,2.4,8.7,19.8-27.2-118.1
					C2635.2,3692,2610.4,3722.2,2599.3,3735.8z"/>
			</g>
			<g>
				<path class="st2" d="M2933.4,3627.4c-14.3,27.1-30.8,57.6-46.8,83.9c-3.2,5.3,4.6,21.1-47.3-111.5
					C2878,3612.8,2915.4,3622.6,2933.4,3627.4z"/>
				<path class="st2" d="M2769.2,3690.4c39.5,14.7,68.2,24,95,32.2l-43.6-115.8C2797.7,3646.9,2782.1,3670.8,2769.2,3690.4z"/>
			</g>
			<g>
				<path class="st2" d="M3090,3547.5c-15.2,39.4-31.1,73.7-39.6,92.2l-56.9-109.9C3006.5,3532.5,3047.3,3541.3,3090,3547.5z"/>
				<path class="st2" d="M2933.4,3627.4c42.8,11.3,80.6,18.6,97.9,22l-55.6-110.6C2962.5,3568.4,2948.6,3598.2,2933.4,3627.4z"/>
			</g>
			<g>
				<path class="st2" d="M3237.4,3451.5c-9.7,34.8-17.7,60.9-29.7,95.8l-68.1-103.3C3166.6,3446.9,3192.9,3449.5,3237.4,3451.5z"/>
				<path class="st2" d="M3090,3547.5c41.4,5.8,50,6.9,95.3,11.3c6.2,0.6,14.4,16.1-62.5-103.7
					C3112.9,3487.6,3097.2,3528.6,3090,3547.5z"/>
			</g>
			<g>
				<path class="st2" d="M3374,3340.8c-4.9,28.1-10.7,61.1-19.5,98.4c-90.4-110.1-80.3-95.7-74.3-95.6
					C3297.1,3343.8,3332.2,3343,3374,3340.8z"/>
				<path class="st2" d="M3237.4,3451.5c26.4,1.1,52.2,2.1,100.3,1.2l-77.3-96.6C3253,3391.5,3246.8,3416.9,3237.4,3451.5z"/>
			</g>
			<g>
				<path class="st2" d="M3498.3,3216.5c-2,34.8-5.2,65.5-9.2,99.9l-88-87C3421.3,3227.2,3455.3,3223.8,3498.3,3216.5z"/>
				<path class="st2" d="M3374,3340.8c34.6-1.9,65.4-5.2,99.9-9.2l-87-88C3384.4,3267.6,3381.1,3299,3374,3340.8z"/>
			</g>
			<g>
				<path class="st2" d="M3609,3079.8c1.1,26.4,2.1,52.3,1.2,100.3l-96.6-77.3C3548.9,3095.5,3574.2,3089.3,3609,3079.8z"/>
				<path class="st2" d="M3498.3,3216.5c26.6-4.6,60.9-10.7,98.4-19.5c-110-90.3-95.7-80.3-95.6-74.3
					C3501.4,3150.1,3500,3185.9,3498.3,3216.5z"/>
			</g>
			<g>
				<path class="st2" d="M3705,2932.5c5.8,41.4,6.9,50,11.3,95.3c0.6,6.2,16.1,14.4-103.7-62.5
					C3644.9,2955.4,3686.2,2939.6,3705,2932.5z"/>
				<path class="st2" d="M3609,3079.8c34.8-9.7,60.9-17.7,95.8-29.7l-103.3-68.1C3604.5,3009.1,3607,3035.4,3609,3079.8z"/>
			</g>
			<g>
				<path class="st2" d="M3784.9,2775.8c11.3,42.8,18.6,80.6,22,97.9l-110.6-55.6C3725.4,2805.2,3755.3,2791.4,3784.9,2775.8z"/>
				<path class="st2" d="M3705,2932.5c39.3-15.2,73.7-31.1,92.2-39.6l-109.9-56.9C3690,2848.8,3698.9,2889.8,3705,2932.5z"/>
			</g>
			<g>
				<path class="st2" d="M3847.9,2611.7c14.8,39.7,24.1,68.6,32.2,95l-115.8-43.6C3804.5,2640.1,3828.3,2624.6,3847.9,2611.7z"/>
				<path class="st2" d="M3784.9,2775.8c27-14.3,57.6-30.8,83.9-46.8c5.3-3.2,21.1,4.6-111.5-47.3
					C3770.3,2720.5,3780.2,2758.2,3784.9,2775.8z"/>
			</g>
			<g>
				<path class="st2" d="M3893.4,2441.8c11.7,23.7,30.5,62.6,40.4,87.1c2.4,5.7,19.8,8.7-118.1-27.2
					C3849.2,2477.8,3879,2453.5,3893.4,2441.8z"/>
				<path class="st2" d="M3847.9,2611.7c34.7-23.1,58.4-40.2,81.9-58l-119.3-32.7C3829.5,2563.1,3839.7,2589.8,3847.9,2611.7z"/>
			</g>
			<g>
				<path class="st2" d="M3920.7,2268.1c20.7,32.7,32.5,52.5,51.4,86.2l-122.4-18.5C3877.8,2310.5,3894.2,2294.8,3920.7,2268.1z"/>
				<path class="st2" d="M3893.4,2441.8c20.4-16.7,43.8-37,75.3-66.3l-122.1-20C3866.7,2390.2,3880.7,2416.4,3893.4,2441.8z"/>
			</g>
			<g>
				<path class="st2" d="M3929.8,2092.5c30.3,38.5,42.5,55.9,60,80.4l-123.6-5.6C3891,2139.5,3900.7,2128.5,3929.8,2092.5z"/>
				<path class="st2" d="M3920.7,2268.1c30.6-30.8,58.3-62.8,67.9-73.8l-123.5-7.1C3871.8,2196.4,3897.3,2231.1,3920.7,2268.1z"/>
			</g>
			<path class="st2" d="M3990.7,2092.5c-12.5,1000.8-790.4,1728.8-1740.7,1740.7v25.8c998.4-12.4,1754.3-783.7,1766.5-1766.5H3990.7
				z"/>
			<path class="st2" d="M3842.6,2092.5c-11.8,918-724.8,1581.4-1592.6,1592.6v25.8c920.8-11.8,1607-722.8,1618.4-1618.4H3842.6z"/>
		</g>
		<g>
			<g>
				<path class="st2" d="M579.3,2268.1c-30.7-30.9-58.1-62.5-67.9-73.8l123.5-7.1C628.1,2196.4,602.7,2231.1,579.3,2268.1z"/>
				<path class="st2" d="M570.2,2092.5c-30.3,38.5-42.5,55.9-60,80.4l123.6-5.6C609,2139.5,599.3,2128.5,570.2,2092.5z"/>
			</g>
			<g>
				<path class="st2" d="M606.6,2441.8c-20.6-16.9-43.9-37-75.3-66.3l122.1-20C633.5,2389.8,619.4,2416,606.6,2441.8z"/>
				<path class="st2" d="M579.3,2268.1c-20.7,32.7-32.5,52.5-51.4,86.2l122.4-18.5C622.1,2310.4,605.8,2294.8,579.3,2268.1z"/>
			</g>
			<g>
				<path class="st2" d="M652.1,2611.7c-35.3-23.4-59.8-41.3-81.9-58l119.3-32.7C670.6,2563,660.4,2589.7,652.1,2611.7z"/>
				<path class="st2" d="M606.6,2441.8c-11.7,23.7-30.4,62.6-40.4,87.1c-2.4,5.7-19.8,8.7,118.1-27.2
					C651,2478,620.9,2453.4,606.6,2441.8z"/>
			</g>
			<g>
				<path class="st2" d="M715.1,2775.8c-27.1-14.3-57.6-30.8-83.9-46.8c-5.3-3.2-21.1,4.6,111.5-47.3
					C729.5,2721,719.6,2758.9,715.1,2775.8z"/>
				<path class="st2" d="M652.1,2611.7c-14.7,39.5-24,68.1-32.2,95l115.8-43.6C695.5,2640.1,671.8,2624.6,652.1,2611.7z"/>
			</g>
			<g>
				<path class="st2" d="M795,2932.5c-39.4-15.2-73.7-31.1-92.2-39.6l109.9-56.9C809.9,2849,801.2,2889.8,795,2932.5z"/>
				<path class="st2" d="M715.1,2775.8c-11.2,42.7-18.6,80.6-22,97.9l110.6-55.6C774.8,2805.3,744.6,2791.3,715.1,2775.8z"/>
			</g>
			<g>
				<path class="st2" d="M891,3079.8c-34.8-9.7-60.9-17.7-95.8-29.7l103.3-68.1C895.5,3009.2,893,3035.3,891,3079.8z"/>
				<path class="st2" d="M795,2932.5c-5.9,41.6-6.9,50-11.3,95.3c-0.6,6.2-16.1,14.4,103.7-62.5
					C854.9,2955.4,813.9,2939.7,795,2932.5z"/>
			</g>
			<g>
				<path class="st2" d="M1001.7,3216.5c-28-4.9-61.1-10.7-98.4-19.5c110-90.3,95.7-80.3,95.6-74.3
					C998.7,3139.7,999.5,3174.7,1001.7,3216.5z"/>
				<path class="st2" d="M891,3079.8c-1.1,26.5-2.1,52.3-1.2,100.3l96.6-77.3C951.1,3095.5,925.8,3089.3,891,3079.8z"/>
			</g>
			<g>
				<path class="st2" d="M1126,3340.8c-34.8-2-65.5-5.2-99.9-9.2l87-88C1115.7,3268.3,1119,3299.3,1126,3340.8z"/>
				<path class="st2" d="M1001.7,3216.5c2,34.7,5.2,65.4,9.2,99.9l88-87C1074.9,3226.8,1043.5,3223.6,1001.7,3216.5z"/>
			</g>
			<g>
				<path class="st2" d="M1262.6,3451.5c-26.4,1.1-52.3,2.1-100.3,1.2l77.3-96.6C1247,3391.4,1253.2,3416.6,1262.6,3451.5z"/>
				<path class="st2" d="M1126,3340.8c4.9,28,10.7,61.1,19.5,98.4c90.3-110,80.3-95.7,74.3-95.6
					C1192.5,3343.8,1156.8,3342.4,1126,3340.8z"/>
			</g>
			<g>
				<path class="st2" d="M1410,3547.5c-41.3,5.8-49.9,6.9-95.3,11.3c-6.2,0.6-14.4,16.1,62.5-103.7
					C1387.1,3487.5,1402.9,3528.8,1410,3547.5z"/>
				<path class="st2" d="M1262.6,3451.5c9.7,34.8,17.7,60.9,29.7,95.8l68.1-103.3C1333.1,3447,1307.1,3449.5,1262.6,3451.5z"/>
			</g>
			<g>
				<path class="st2" d="M1566.6,3627.4c-42.8,11.3-80.6,18.6-97.9,22l55.6-110.6C1537.4,3568.3,1551.3,3598,1566.6,3627.4z"/>
				<path class="st2" d="M1410,3547.5c15.2,39.4,31.1,73.6,39.6,92.2l56.9-109.9C1493.5,3532.5,1452.6,3541.3,1410,3547.5z"/>
			</g>
			<g>
				<path class="st2" d="M1730.8,3690.4c-39.7,14.8-68.5,24.1-95,32.2l43.6-115.8C1702.3,3646.9,1717.9,3670.8,1730.8,3690.4z"/>
				<path class="st2" d="M1566.6,3627.4c14.3,27,30.7,57.6,46.8,83.9c3.2,5.3-4.6,21.1,47.3-111.5
					C1621.4,3613,1583.3,3622.9,1566.6,3627.4z"/>
			</g>
			<g>
				<path class="st2" d="M1900.7,3735.8c-23.6,11.7-62.6,30.4-87.1,40.4c-5.7,2.4-8.7,19.8,27.2-118.1
					C1864.9,3692,1889.5,3722.1,1900.7,3735.8z"/>
				<path class="st2" d="M1730.8,3690.4c23.3,35,41.1,59.6,58,81.9l32.7-119.3C1779.4,3671.9,1752.7,3682.1,1730.8,3690.4z"/>
			</g>
			<g>
				<path class="st2" d="M2074.4,3763.2c-32.7,20.7-52.5,32.5-86.2,51.4l18.5-122.4C2032,3720.3,2047.6,3736.7,2074.4,3763.2z"/>
				<path class="st2" d="M1900.7,3735.8c16.7,20.3,36.9,43.8,66.3,75.3l20-122.1C1952.4,3709.1,1926.2,3723.1,1900.7,3735.8z"/>
			</g>
			<g>
				<path class="st2" d="M2250,3772.3c-38.5,30.3-55.9,42.5-80.4,60l5.6-123.6C2202.9,3733.4,2213.9,3743.2,2250,3772.3z"/>
				<path class="st2" d="M2074.4,3763.2c30.8,30.6,62.8,58.3,73.8,67.9l7.1-123.5C2146.1,3714.3,2111.4,3739.8,2074.4,3763.2z"/>
			</g>
			<path class="st2" d="M2250,3833.1C1424.5,3822.8,791.1,3294.6,577.2,2575c-46.7-157.1-65.8-320.6-67.8-482.5h-25.8
				C495.9,3086.7,1263.7,3846.7,2250,3859V3833.1z"/>
			<path class="st2" d="M2250,3685c-917.2-11.8-1581.4-723.8-1592.6-1592.6h-25.8c11.7,910.9,713.7,1606.8,1618.4,1618.4V3685z"/>
		</g>
		<g>
			<g>
				<path class="st2" d="M2074.4,421.7c30.9-30.7,62.5-58.1,73.8-67.9l7.1,123.5C2146.1,470.7,2111.4,445.2,2074.4,421.7z"/>
				<path class="st2" d="M2250,412.6c-38.5-30.3-55.9-42.5-80.4-60l5.6,123.6C2203,451.5,2214,441.7,2250,412.6z"/>
			</g>
			<g>
				<path class="st2" d="M1900.7,449.1c16.6-20.3,36.9-43.7,66.3-75.3l20,122.1C1953.4,476.5,1927.3,462.3,1900.7,449.1z"/>
				<path class="st2" d="M2074.4,421.7c-32.7-20.7-52.5-32.5-86.2-51.4l18.5,122.4C2032.1,464.6,2047.7,448.2,2074.4,421.7z"/>
			</g>
			<g>
				<path class="st2" d="M1730.8,494.5c23-34.6,40.1-58.3,58-81.9l32.7,119.3C1779.3,513,1752.6,502.8,1730.8,494.5z"/>
				<path class="st2" d="M1900.7,449.1c-23.9-11.8-62.6-30.5-87.1-40.4c-5.7-2.4-8.7-19.8,27.2,118.1
					C1864.8,493,1889.6,462.7,1900.7,449.1z"/>
			</g>
			<g>
				<path class="st2" d="M1566.6,557.5c14.3-27,30.8-57.6,46.8-83.9c3.2-5.3-4.6-21.1,47.3,111.5
					C1621.5,572,1583.6,562,1566.6,557.5z"/>
				<path class="st2" d="M1730.8,494.5c-39.6-14.8-68.5-24.1-95-32.2l43.6,115.8C1702.4,537.9,1717.9,514.1,1730.8,494.5z"/>
			</g>
			<g>
				<path class="st2" d="M1410,637.5c15.2-39.4,31-73.5,39.6-92.2l56.9,109.9C1493.4,652.4,1452.6,643.6,1410,637.5z"/>
				<path class="st2" d="M1566.6,557.5c-42.8-11.3-80.6-18.6-97.9-22l55.6,110.6C1537.1,617.3,1551.2,587,1566.6,557.5z"/>
			</g>
			<g>
				<path class="st2" d="M1262.6,733.4c9.6-34.7,17.7-60.9,29.7-95.8l68.1,103.3C1333.5,738,1307.3,735.5,1262.6,733.4z"/>
				<path class="st2" d="M1410,637.5c-41.6-5.9-50-6.9-95.3-11.3c-6.2-0.6-14.4-16.1,62.5,103.7
					C1387.1,697.4,1402.8,656.4,1410,637.5z"/>
			</g>
			<g>
				<path class="st2" d="M1126,844.1c4.2-24.1,10.1-58.5,19.5-98.4c90.3,110,80.3,95.7,74.3,95.6
					C1202.7,841.2,1167.7,841.9,1126,844.1z"/>
				<path class="st2" d="M1262.6,733.4c-26.1-1.1-52.1-2.1-100.3-1.2l77.3,96.6C1247,793.5,1253.2,768.2,1262.6,733.4z"/>
			</g>
			<g>
				<path class="st2" d="M1001.7,968.5c2-34.7,5.2-65.4,9.2-99.9l88,87C1071.4,958.5,1041.5,961.7,1001.7,968.5z"/>
				<path class="st2" d="M1126,844.1c-34.7,2-65.4,5.2-99.9,9.2l87,88C1116,913.8,1119.3,883.9,1126,844.1z"/>
			</g>
			<g>
				<path class="st2" d="M891,1105.1c-1.1-26.2-2.1-52.2-1.2-100.3l96.6,77.3C951,1089.4,925.6,1095.7,891,1105.1z"/>
				<path class="st2" d="M1001.7,968.5c-28.2,4.9-61.2,10.7-98.4,19.5c110.1,90.4,95.7,80.3,95.6,74.3
					C998.6,1035.4,1000,999.6,1001.7,968.5z"/>
			</g>
			<g>
				<path class="st2" d="M795,1252.5c-5.9-41.8-6.9-50-11.3-95.3c-0.6-6.2-16.1-14.4,103.7,62.5C855,1229.6,813.7,1245.3,795,1252.5
					z"/>
				<path class="st2" d="M891,1105.1c-34.8,9.6-60.9,17.7-95.8,29.7l103.3,68.1C895.6,1176.4,893,1150,891,1105.1z"/>
			</g>
			<g>
				<path class="st2" d="M715.1,1409.1c-11.2-42.7-18.6-80.5-22-97.9l110.6,55.6C773.8,1380,744.2,1393.9,715.1,1409.1z"/>
				<path class="st2" d="M795,1252.5c-39.4,15.2-73.5,31-92.2,39.6l109.9,56.9C810,1336.1,801.2,1295.2,795,1252.5z"/>
			</g>
			<g>
				<path class="st2" d="M652.1,1573.3c-14.7-39.6-24-68.2-32.2-95l115.8,43.6C695.5,1544.8,671.7,1560.3,652.1,1573.3z"/>
				<path class="st2" d="M715.1,1409.1c-27.1,14.3-57.7,30.8-83.9,46.8c-5.3,3.2-21.1-4.6,111.5,47.3
					C729.5,1463.9,719.6,1426,715.1,1409.1z"/>
			</g>
			<g>
				<path class="st2" d="M606.6,1743.1c-11.7-23.7-30.4-62.6-40.4-87.1c-2.4-5.7-19.8-8.7,118.1,27.2
					C650.4,1707.3,620.2,1732.1,606.6,1743.1z"/>
				<path class="st2" d="M652.1,1573.3c-35.3,23.4-59.9,41.3-81.9,58l119.3,32.7C670.5,1621.9,660.4,1595.2,652.1,1573.3z"/>
			</g>
			<g>
				<path class="st2" d="M579.3,1916.8c-20.7-32.7-32.5-52.5-51.4-86.2l122.4,18.5C622.2,1874.5,605.8,1890.1,579.3,1916.8z"/>
				<path class="st2" d="M606.6,1743.1c-20.5,16.8-43.8,37-75.3,66.3l122.1,20C634.3,1796.5,620.2,1770.4,606.6,1743.1z"/>
			</g>
			<g>
				<path class="st2" d="M570.2,2092.5c-30.3-38.5-42.5-55.8-60-80.4l123.6,5.6C608.9,2045.6,599.2,2056.5,570.2,2092.5z"/>
				<path class="st2" d="M579.3,1916.8c-30.6,30.8-58.2,62.7-67.9,73.8l123.5,7.1C628.2,1988.6,602.7,1953.9,579.3,1916.8z"/>
			</g>
			<path class="st2" d="M509.3,2092.5C519.6,1275.6,1039,636.2,1767.5,419.6c155.2-46.1,318-65.8,482.5-67.8V326
				c-987.7,12.3-1754.2,774.8-1766.5,1766.5H509.3z"/>
			<path class="st2" d="M657.4,2092.5C669.2,1174.6,1382.1,511.1,2250,499.9V474C1336.8,485.7,643.1,1190,631.6,2092.5H657.4z"/>
		</g>
		<g>
			<g>
				<path class="st2" d="M3920.7,1916.8c30.7,30.9,58.3,62.8,67.9,73.8l-123.5,7.1C3871.8,1988.6,3897.3,1953.9,3920.7,1916.8z"/>
				<path class="st2" d="M3929.8,2092.5c30.2-38.4,42.5-55.8,60-80.4l-123.6,5.6C3891,2045.5,3900.9,2056.7,3929.8,2092.5z"/>
			</g>
			<g>
				<path class="st2" d="M3893.4,1743.1c20.4,16.7,43.8,36.9,75.3,66.3l-122.1,20C3866.5,1795.1,3880.6,1768.9,3893.4,1743.1z"/>
				<path class="st2" d="M3920.7,1916.8c20.7-32.7,32.5-52.5,51.4-86.2l-122.4,18.5C3877.9,1874.5,3894.2,1890.2,3920.7,1916.8z"/>
			</g>
			<g>
				<path class="st2" d="M3847.9,1573.3c35,23.3,59.6,41.1,81.9,58l-119.3,32.7C3829.5,1621.7,3839.7,1595.1,3847.9,1573.3z"/>
				<path class="st2" d="M3893.4,1743.1c11.7-23.7,30.4-62.6,40.4-87.1c2.4-5.7,19.8-8.7-118.1,27.2
					C3849.5,1707.3,3879.6,1731.9,3893.4,1743.1z"/>
			</g>
			<g>
				<path class="st2" d="M3784.9,1409.1c27.1,14.3,57.6,30.8,83.9,46.8c5.3,3.2,21.1-4.6-111.5,47.3
					C3770.5,1463.9,3780.4,1426,3784.9,1409.1z"/>
				<path class="st2" d="M3847.9,1573.3c14.8-39.7,24.2-68.6,32.2-95l-115.8,43.6C3804.5,1544.8,3828.3,1560.4,3847.9,1573.3z"/>
			</g>
			<g>
				<path class="st2" d="M3705,1252.5c39.4,15.2,73.5,31,92.2,39.6l-109.9,56.9C3690.1,1335.9,3698.8,1295.1,3705,1252.5z"/>
				<path class="st2" d="M3784.9,1409.1c11.3-42.9,18.6-80.7,22-97.9l-110.6,55.6C3726.1,1380,3755.9,1393.9,3784.9,1409.1z"/>
			</g>
			<g>
				<path class="st2" d="M3609,1105.1c34.8,9.6,60.9,17.7,95.8,29.7l-103.3,68.1C3604.5,1175.8,3607,1149.6,3609,1105.1z"/>
				<path class="st2" d="M3705,1252.5c5.8-41.4,6.9-50,11.3-95.3c0.6-6.2,16.1-14.4-103.7,62.5
					C3645,1229.6,3686.1,1245.2,3705,1252.5z"/>
			</g>
			<g>
				<path class="st2" d="M3498.3,968.5c24.1,4.2,58.6,10.1,98.4,19.5c-110.1,90.4-95.7,80.3-95.6,74.3
					C3501.3,1045.3,3500.5,1010.2,3498.3,968.5z"/>
				<path class="st2" d="M3609,1105.1c1.1-26.4,2.1-52.2,1.2-100.3l-96.6,77.3C3549,1089.5,3574.4,1095.7,3609,1105.1z"/>
			</g>
			<g>
				<path class="st2" d="M3374,844.1c34.7,2,65.4,5.2,99.9,9.2l-87,88C3384,913.8,3380.8,884,3374,844.1z"/>
				<path class="st2" d="M3498.3,968.5c-1.9-34.6-5.2-65.4-9.2-99.9l-88,87C3425.7,958.2,3456.9,961.4,3498.3,968.5z"/>
			</g>
			<g>
				<path class="st2" d="M3237.4,733.4c26.2-1.1,52.2-2.1,100.3-1.2l-77.3,96.6C3253,793.4,3246.7,768,3237.4,733.4z"/>
				<path class="st2" d="M3374,844.1c-4.9-28-10.7-61.1-19.5-98.4c-90.4,110.1-80.3,95.7-74.3,95.6
					C3307.2,841.1,3343.1,842.5,3374,844.1z"/>
			</g>
			<g>
				<path class="st2" d="M3090,637.5c41.8-5.9,50-6.9,95.3-11.3c6.2-0.6,14.4-16.1-62.5,103.7C3112.9,697.5,3097.2,656.2,3090,637.5
					z"/>
				<path class="st2" d="M3237.4,733.4c-9.7-34.8-17.7-60.9-29.7-95.8l-68.1,103.3C3166.5,738,3192.7,735.5,3237.4,733.4z"/>
			</g>
			<g>
				<path class="st2" d="M2933.4,557.5c42.9-11.3,80.7-18.6,97.9-22l-55.6,110.6C2962.5,616.6,2948.6,586.6,2933.4,557.5z"/>
				<path class="st2" d="M3090,637.5c-15.2-39.4-31.1-73.7-39.6-92.2l-56.9,109.9C3006.4,652.4,3047.3,643.6,3090,637.5z"/>
			</g>
			<g>
				<path class="st2" d="M2769.2,494.5c39.5-14.7,68.1-24,95-32.2l-43.6,115.8C2797.6,537.9,2782.1,514.1,2769.2,494.5z"/>
				<path class="st2" d="M2933.4,557.5c-14.2-27-30.8-57.6-46.8-83.9c-3.2-5.3,4.6-21.1-47.3,111.5
					C2878.5,572,2916.4,562.1,2933.4,557.5z"/>
			</g>
			<g>
				<path class="st2" d="M2599.3,449.1c23.7-11.7,62.6-30.4,87.1-40.4c5.7-2.4,8.7-19.8-27.2,118.1
					C2635.2,493,2610.5,462.9,2599.3,449.1z"/>
				<path class="st2" d="M2769.2,494.5c-23.4-35.1-41.1-59.6-58-81.9L2678.5,532C2720.6,513,2747.3,502.8,2769.2,494.5z"/>
			</g>
			<g>
				<path class="st2" d="M2425.6,421.7c32.7-20.7,52.5-32.5,86.2-51.4l-18.5,122.4C2468,464.6,2452.4,448.3,2425.6,421.7z"/>
				<path class="st2" d="M2599.3,449.1c-16.8-20.4-37-43.9-66.3-75.3l-20,122.1C2546.2,476.7,2572.3,462.6,2599.3,449.1z"/>
			</g>
			<g>
				<path class="st2" d="M2250,412.6c38.5-30.3,55.8-42.5,80.4-60l-5.6,123.6C2296.9,451.4,2285.9,441.7,2250,412.6z"/>
				<path class="st2" d="M2425.6,421.7c-30.8-30.6-62.7-58.2-73.8-67.9l-7.1,123.5C2353.9,470.7,2388.6,445.2,2425.6,421.7z"/>
			</g>
			<path class="st2" d="M2250,351.8c1001.7,12.5,1728.8,791.6,1740.7,1740.7h25.8C4004.2,1106.4,3243.4,338.3,2250,326V351.8z"/>
			<path class="st2" d="M2250,499.9c918,11.8,1581.4,724.9,1592.6,1592.6h25.8C3856.7,1177.7,3150.5,485.6,2250,474V499.9z"/>
		</g>
	</g>
</g>
<g>
	<g>
		<g>
			<g>
				<g>
					<path class="st3" d="M2989.6,1062.7c-212.3,130.3-449.1,486.7-449.1,486.7c-242,4.1-352.1,8.4-582.2,0
						c0,0-236.8-356.4-449.1-486.7c-72.9-44.8-106.8,108.9-94.3,190.8c12.5,81.8,73.7,301.6,64.3,359.2
						c-26.3,161.6,16.6,215.4,40.3,289.4c-134.9,397.5,125.1,799.2,528.7,972.2c155.9,67.6,243.4,67.5,399.2,0
						c401.6-172.2,660.8-569.6,530.4-967.3c24.2-75.9,68.1-133.1,41.9-294.3c-9.4-57.6,51.8-277.4,64.3-359.2
						C3096.4,1171.7,3062.5,1018,2989.6,1062.7z"/>
					<path class="st0" d="M2247.8,2933.9c-313.7,0-928.6-461.7-737.7-1031.9c-24.3-74-66.1-128.6-39.7-290.8
						c8.9-54.9-52.1-276-64.3-356.4c-14-92,26.1-249.9,107.8-199.8c158.1,97.1,345.4,332,449.3,485.6c240.2,8.3,332,4,572.5-0.1
						c104-153.6,291.1-388.4,449.3-485.5c81.6-50.1,121.8,108.2,107.8,199.8c-12.3,80.9-73.3,301.5-64.3,356.4
						c26.4,162.3-16.8,220.5-41.3,295.8C3174.6,2486.8,2548.1,2933.9,2247.8,2933.9z M1484,1063.6c-46.2,0-70.9,119.1-60.3,188.5
						c12.6,82.6,74.1,301.9,64.3,362c-32.1,197.2,48.6,265.5,39.9,290.8c-126.4,372.6,93.8,776.8,523.8,961.1
						c80.8,35,139.4,49.9,196.1,49.9c273,0,912.5-423.6,721.5-1006.3c-9-27.5,73.7-97.8,41.5-295.7c-9.8-60.1,51.7-279.2,64.3-362
						c10.6-69.8-14.4-188.5-60.4-188.5c-51.4,0-288.6,222.6-466.8,490.7c-3.3,4.9-1.4,3.9-7.3,4c-238.7,3.9-343.7,8.7-587.3-0.2
						C1766.5,1277,1533.2,1063.6,1484,1063.6z"/>
				</g>
				<g>
					<g>
						<path class="st0" d="M1512.6,1899.1c21.1-39.1,47.5-81.1,89.6-119.8c36-33-29.2,17.2-75,126.7L1512.6,1899.1z"/>
					</g>
				</g>
				<g>
					<g>
						<path class="st0" d="M2504,1542.6c99.5-4.3,177.9,49.5,251.4,117.2c33.1,30.6-30.8-29.7-87.5-60.9
							c-54.9-29.9-99.2-46.1-162.8-39.8L2504,1542.6z"/>
					</g>
				</g>
				<g>
					<g>
						<path class="st0" d="M2972.4,1906c-17.1-40.9-38.7-84-76-125.7c-30-33.5,21.2,19.1,22.1,20.1c32.3,36.1,47.1,58.7,68.6,98.6
							L2972.4,1906z"/>
					</g>
				</g>
				<g>
					<g>
						<path class="st0" d="M1978.8,1558.6c-97.6-0.1-166.1,40.8-241.1,102.6c-33.2,27.4,32.1-33,80.2-65.4
							c57.8-35.8,94.6-50.1,160.4-53.8L1978.8,1558.6z"/>
					</g>
				</g>
			</g>
			<g>
				<g>
					<g>
						<g>
							<path class="st0" d="M2645.5,1578.2c45.1-53.9,44.6-83.6,56.1-115.1c30.7-87.5,136-246.9,213.6-301.7
								c18.8-13.3,87.2-33.8,95.8-63.1c6,1.2-2.9,23.2-64.3,54.1c-21.9,10.7-26.2,12.6-46.6,31.1
								c-61.5,52.7-151.2,208.9-182.8,285.3c-7,16.1-21.5,72.8-65.1,106.2C2645.7,1580.3,2647.2,1579.9,2645.5,1578.2z"/>
						</g>
					</g>
					<g>
						<g>
							<path class="st0" d="M1852.8,1579.4c-39.3-31.6-50.5-57.8-66.4-99.7c-30.5-83.3-145.2-283.2-224-322.7
								c-23.6-11.5-70-34.5-75.7-58.4c2.2-0.4,1.6-0.8,2.2,1.3c5.6,24.5,83.8,53.3,94.7,61c79,55.8,174.7,205,209.9,290
								c13.5,35.5,18.3,78.9,56,121.8C1855,1579.2,1854.5,1577.7,1852.8,1579.4z"/>
						</g>
					</g>
					<g>
						<g>
							<path class="st0" d="M2690.5,1575.3c58.3-116.7,130.1-153.6,212.4-158.6c36.4-1.3-16.6,1.4-32.4,5.2
								c-48,10.9-85.6,31.5-125.7,79.6C2717.3,1533,2691.9,1576.2,2690.5,1575.3z"/>
						</g>
					</g>
					<g>
						<g>
							<path class="st0" d="M2754.8,1408.1c34.6-55.6,80.9-76.1,141.1-71.2c26.8,2.3-25.6-3.6-61.6,9.3
								C2786.4,1365.6,2757.2,1410,2754.8,1408.1z"/>
						</g>
					</g>
					<g>
						<g>
							<path class="st0" d="M2809.7,1309.5c15.6-30.5,56.2-55.3,88.6-58.2c0.3,3.4-16.7-3-56.1,28.9
								C2806.9,1311.4,2810.8,1310.4,2809.7,1309.5z"/>
						</g>
					</g>
					<g>
						<g>
							<path class="st0" d="M1807.8,1575.6c-55.1-81.5-98.6-144-197.7-156.7c-17-2.4-26.7-1-26.7-2.4
								c67.2,0.4,112.7,19.8,156.8,62.1C1774.7,1511.5,1809.5,1574.6,1807.8,1575.6z"/>
						</g>
					</g>
					<g>
						<g>
							<path class="st0" d="M1743.5,1408.4c-40.1-40.2-64.4-73.1-140.7-70.6c-23.6,0.9,12.4-4,40-0.3
								C1714.4,1350,1744,1408.1,1743.5,1408.4z"/>
						</g>
					</g>
					<g>
						<g>
							<path class="st0" d="M1688.6,1309.8c-7.9-7.1-1.1-2.2-32.1-29.6c-40.3-32.6-56.4-25.2-56.1-28.9
								C1651.1,1255.8,1692.9,1306.5,1688.6,1309.8z"/>
						</g>
					</g>
				</g>
			</g>
		</g>
		<g>
			<g>
				<g>
					<g>
						<g>
							<path class="st1" d="M2511.5,2622.9c244,3.4,412.3,38.5,783.2,238.8c189.4,104.2-27.3-19.2-220.2-107.7
								c-150-68.6-259.7-109.3-523.9-128.5C2508.5,2622.6,2511.5,2623.8,2511.5,2622.9z"/>
						</g>
					</g>
					<g>
						<g>
							<path class="st1" d="M1988,2623.3c-272.9,9.8-442.9,58.4-782.8,239.2c-196.2,106.3,42-28.4,218.8-110.5
								c142.2-65.8,267.6-115.5,524.8-127.6C1992.2,2622.2,1988,2623,1988,2623.3z"/>
						</g>
					</g>
				</g>
			</g>
			<g>
				<g>
					<g>
						<g>
							<path class="st1" d="M2435,2594.2c160.2-21.5,402.1-28.1,584.6,5.5c92.1,17.1,269.5,76.4,336.8,121.9
								c24.3,16,32.3,28.1,30.8,28.5c-11.1-34.9-242.3-138.7-459.2-160.9C2681.7,2564.1,2435.3,2596.4,2435,2594.2z"/>
						</g>
					</g>
					<g>
						<g>
							<path class="st1" d="M2453.2,2648.7c127.3,10.6,312,47.1,438.5,112.8c106,57.2,239.4,140.2,339.2,203.8
								c106.6,68.9-65-43.8-277.1-166.4c-65.7-36.2-138.4-85.8-363.5-128.6C2493.7,2652.2,2453,2649.9,2453.2,2648.7z"/>
						</g>
					</g>
					<g>
						<g>
							<path class="st1" d="M2064.5,2594.6c-146.9-16.7-405.3-24.6-584.1,7.6c-96.2,17.4-336.2,94.4-367.8,147.4
								c-0.2,0.5,16.2-37.3,164.6-90.3c121-44.5,277.3-99.3,633.6-78.8C1987.1,2584.7,2064.7,2593.4,2064.5,2594.6z"/>
						</g>
					</g>
					<g>
						<g>
							<path class="st1" d="M2046.4,2649.1c-123.1,13.1-315.7,52.5-437.2,114.9c-103.8,55.3-240.8,139.3-340.2,201.9
								c-106.7,68,66.7-47,275.6-169.1c66.1-36.9,142.4-89.1,364.2-129.2C1975.9,2655.5,2046.4,2648.1,2046.4,2649.1z"/>
						</g>
					</g>
				</g>
			</g>
			<g>
				<g>
					<g>
						<rect x="2236.6" y="2623.1" class="st0" width="17.9" height="87.2"/>
					</g>
				</g>
				<g>
					<g>
						<path class="st0" d="M2132.1,2773c44.9-2.4,94.2-23.8,103.3-64.2c3.8-14.6-5.7-12,19.1-10.8
							C2247.2,2752.4,2188.3,2776.7,2132.1,2773z"/>
					</g>
				</g>
				<g>
					<g>
						<path class="st0" d="M2359,2776.3c-72.7,4.8-117.2-33.9-122.1-73.1c-0.4-2.7-3-1.8,17.6-2.8
							C2255.3,2748.3,2310.3,2773.7,2359,2776.3z"/>
					</g>
				</g>
				<g>
					<g>
						<path class="st0" d="M2371,2505.9c-9.9-36.9-89,2.1-125.4,2.1c-36.7,0-115.5-39-125.4-2.1c-2.7,10.2,20.8,32.3,42.1,33.5
							c16,0.9,11.6-10.1,20.6-10.1c19.7,0,30.2,19.8,30.2,34.7c0,25.3,6.6,45.3,17.9,55.6c3.4,4.7,26,4.7,29.4,0
							c11.4-10.2,17.9-30.3,17.9-55.6c0-14.9,10.5-34.7,30.2-34.7c9,0,4.6,11,20.6,10.1C2350.2,2538.1,2373.7,2516,2371,2505.9z"/>
					</g>
				</g>
				<g>
					<g>
						<g>
							<g>
								<g>
									<g>
										<g>
											<path class="st1" d="M2779.6,2147.3c12.1,91.7-120.7,186.2-244.3,132c-24.7-10.9-65.2-29.3-59.3-47.9
												C2530.3,2059.3,2771.5,2086.6,2779.6,2147.3z"/>
										</g>
									</g>
									<g>
										<g>
											<path class="st0" d="M2629.3,2113.3c-89.6,7.5-127.9,78-147.5,121.7c12.6,22.3,94.7,65.9,159.7,51.1
												c109.1-24.9,125.6-103.6,118.5-156.4C2741.1,2123.7,2711.9,2106.3,2629.3,2113.3z M2792,2118.9
												c-1.6,123.1-111.9,219.4-253.3,170.6c-27.3-10.5-43.5-25.6-57-13.6c-21,18.6-16.8,47.2-28.9,47.2
												c-29.9,0,7.7-121.4,51.5-164.2c27.3-26.7,74.9-64.8,167.6-64.7C2725.5,2094.3,2792,2118.9,2792,2118.9z"/>
										</g>
									</g>
								</g>
							</g>
							<g>
								<g>
									<path class="st0" d="M2641,2268.2c-74.8,13.7-113.1-105.1-96.2-128.8c52.7-32.1,56.5-32.4,119.3-36.8
										C2706.2,2144.5,2694.7,2258.3,2641,2268.2z"/>
								</g>
							</g>
							<g>
								<g>
									<path class="st1" d="M2634.7,2140.7c0,18.3-33.1,18.3-33.1,0C2601.6,2122.4,2634.7,2122.4,2634.7,2140.7z"/>
								</g>
							</g>
						</g>
						<g>
							<g>
								<g>
									<g>
										<g>
											<path class="st1" d="M1714,2147.3c-12.1,91.7,120.7,186.2,244.3,132c24.7-10.9,65.2-29.3,59.3-47.9
												C1963.2,2059.3,1722,2086.6,1714,2147.3z"/>
										</g>
									</g>
									<g>
										<g>
											<path class="st0" d="M1733.5,2129.7c-7.1,52.8,9.4,131.5,118.5,156.4c64.9,14.8,147.1-28.8,159.7-51.1
												c-19.6-43.8-57.9-114.2-147.5-121.7C1781.7,2106.3,1752.4,2123.7,1733.5,2129.7z M1989.2,2158.9
												c43.8,42.8,81.4,164.2,51.5,164.2c-12.1,0-7.9-28.6-28.9-47.2c-13.5-12-29.7,3.1-57,13.6
												c-140.7,48.5-251.7-46.8-253.3-170.6C1801.4,2082,1908.3,2079.8,1989.2,2158.9z"/>
										</g>
									</g>
								</g>
							</g>
							<g>
								<g>
									<path class="st0" d="M1852.5,2268.2c74.8,13.7,113.1-105.1,96.2-128.8c-52.7-32.1-56.5-32.4-119.3-36.8
										C1787.3,2144.5,1798.8,2258.3,1852.5,2268.2z"/>
								</g>
							</g>
							<g>
								<g>
									<path class="st1" d="M1858.8,2140.7c0,18.3,33.1,18.3,33.1,0C1891.9,2122.4,1858.8,2122.4,1858.8,2140.7z"/>
								</g>
							</g>
						</g>
					</g>
					<g>
						<g>
							<g>
								<g>
									<path class="st0" d="M2771.8,2111.3c79.5,5.8,135.2,0.5,186.2-60.7c22.1-27.5,34.5-57.1,29.3-44.9
										c-45.7,104.8-105,128.1-216.2,130L2771.8,2111.3z"/>
								</g>
							</g>
							<g>
								<g>
									<path class="st0" d="M2777.7,2130c64.5-9.5,117.4,33,132.7,101.5c3.3,16.6-6.6-47.5-63.7-74.4c-16.7-8-35.9-11-57.2-6.7
										C2780,2152.3,2783.6,2157.7,2777.7,2130z"/>
								</g>
							</g>
							<g>
								<g>
									<path class="st4" d="M2957.7,2140.7c0,31.1-47,31.1-47,0C2910.7,2109.7,2957.7,2109.6,2957.7,2140.7z"/>
								</g>
							</g>
							<g>
								<g>
									<g>
										<path class="st4" d="M2459.8,2370.8c0,31.1-47,31.1-47,0C2412.8,2339.8,2459.8,2339.7,2459.8,2370.8z"/>
									</g>
								</g>
							</g>
							<g>
								<g>
									<path class="st0" d="M1728.4,2135.6c-83.6-1.5-143.5-13-191-82c-15-22.7-30.7-58.9-24.9-48.1
										c53.4,97.1,109.5,113.5,215.2,105.8L1728.4,2135.6z"/>
								</g>
							</g>
							<g>
								<g>
									<path class="st0" d="M1717.1,2152.3c-48-13.6-103,11.2-127.6,79.3c-7,20.8,16.6-118.8,132.4-101.5L1717.1,2152.3z"/>
								</g>
							</g>
							<g>
								<g>
									<g>
										<path class="st5" d="M2739,2033.1c0,31.1-47,31.1-47,0C2692,2002,2739,2002,2739,2033.1z"/>
									</g>
									<g>
										<path class="st5" d="M1760.6,2033.1c0,31.1,47,31.1,47,0C1807.6,2002,1760.6,2002,1760.6,2033.1z"/>
									</g>
								</g>
							</g>
							<g>
								<g>
									<g>
										<path class="st4" d="M1541.8,2140.7c0,31.1,47,31.1,47,0C1588.8,2109.7,1541.8,2109.6,1541.8,2140.7z"/>
									</g>
								</g>
							</g>
							<g>
								<g>
									<path class="st4" d="M2039.7,2370.8c0,31.1,47,31.1,47,0C2086.7,2339.8,2039.7,2339.7,2039.7,2370.8z"/>
								</g>
							</g>
						</g>
						<g>
							<g>
								<g>
									<path class="st1" d="M2119.2,2295.6c1.2-318.3-300-433.2-470.2-389.2c-35.3,8.6-62.3,21-40.5,9.2
										c169.8-89.9,444,22.2,501.9,261.4C2123.3,2230.4,2123.1,2295.7,2119.2,2295.6z"/>
								</g>
							</g>
						</g>
						<g>
							<g>
								<g>
									<path class="st1" d="M2378.9,2295.7c-13.1-324.7,318.7-482.6,512.2-380.1c21.9,11.9-5.9-0.7-40.5-9.2
										c-138.6-35.8-391.4,37-456,271.9C2374.7,2250.4,2383.7,2295.6,2378.9,2295.7z"/>
								</g>
							</g>
						</g>
					</g>
				</g>
			</g>
		</g>
	</g>
	<g>
		<g>
			<g>
				<path class="st4" d="M2285.1,1665.3c0,52.3-79.1,52.4-79.1,0C2206,1613,2285.1,1612.9,2285.1,1665.3z"/>
			</g>
		</g>
	</g>
	<g>
		<g>
			<path class="st1" d="M2475.6,1621.2c-54.8,238.2-396.4,238.4-451.3,0c-51.7,153.7,62.7,313.9,225.6,313.9
				C2412.8,1935,2527.3,1775,2475.6,1621.2z"/>
		</g>
	</g>
</g>
<g>
	<path class="st4" d="M762.1,2657.5c-0.9-0.8-1.9-1.5-3-2c-5.7,51.6-21.7,114.6-40.7,181C746.9,2775.1,785.9,2674.9,762.1,2657.5z"
		/>
	<path class="st4" d="M931.4,3140.1c-60.9,77.3-84.7,215-139.1,322.1c-16.1,31.9-30.9,52-30.3,51.2c-2.3,3.3-7.3,0-5.1-3.4
		c4.5-7.1,8.8-14.5,12.9-22.1c-0.2-0.1-0.4-0.1-0.7-0.2c-132.1-60-154.1-89.6-156.1-205.8c-4.6-273.4,223.4-699.6,102.4-741.6
		c-48.5-17.8-243.8,546.5-263.9,614.6c-5.2,17.6-5.2,23.6-10.9,22c-9.1-2.5,31.1-127.6,83.8-267.4
		c-56.9,56.3-72.9,120.7-107.6,193.7c-25.2,54.4-63.3,100.3-69.1,94.3c-1.2-1.3-1.2-3.3,0-4.6c72.1-75.9,80.5-173.4,138.1-252.8
		c23-114.3,109.6-227.9,17.4-272.7c-21.1-10.1-111.6,263.5-119.2,286.2c-29.5,86.7-66.7,107-87.4,272.5c-0.4,3.2-5.1,2.7-4.9-0.5
		c1.8-26.1,4.1-47.7,7-66.8c-5.8-9.6-13.8-24.4-18.1-32.6c-67.3-128.6-47-114.5-69.8-173.8c-10.4-27.1-25.4-48.9-54.3-53.2
		c-9.4-1.4-15-0.8-17.8-0.5c13.8,142.2,42.5,199.3,63.7,258.3c24.4,73.9,16.5,148.4,79.8,352.8c20.7,65.5,41.1,173.6,44.5,262.4
		c4.7,124.5-15.6,152.6-70.3,231.9c-27.1,39.2-65.1,90.9-97.8,126.5c15.9,8.4,109.3,152.9,411.6,172.7c14.8,1.1,23.1,1.2,27.2,1.3
		c3.8-26,22.9-163.6,81.4-295.1c57.2-126.1,190.9-189.5,250.5-377.6c15.1-47.3,8.1-48.8,65.7-226.6c10.4-32.4,21.2-66.6,24.2-99.1
		c5.4-70.5,40.8-193.5,31.3-204.2C1007.1,3074.4,963.1,3099.9,931.4,3140.1z"/>
	<path class="st0" d="M993.2,3075.5c-123.8,28.9-144.9,259.5-219,403.9c-14.8-14.8-102.3-34.4-134.6-107.7
		c-16.8-39.1-14-143.4-9.8-187.3c8.9-88.6,48.7-210.9,82.2-326c40.3-62.4,89.9-191.4,47.2-204.4c7-65.1-2.6-111.6-43.7-123.1
		c-11-3.1-17,2.4-26.5,15.1c-38.9,52.2-104,204.1-158.1,345.7c-13.1,10.9-24.5,22.4-34.5,34.4c20.6-84.2,72.9-169.7,50-226.7
		c-10.2-26.1-38.4-40.2-44-40.5c-29-1.4-77.8,145.2-87.4,173.4c-65.9,193.8-98.9,224.9-115,317.3c-13.7-26.5-49.2-95.6-58.2-119.9
		c-13.7-36.7-20.2-88-46.7-116.2c-23.1-24.7-50.5-19.6-59.5-19.2c-5.7,0.5,6.9,99.6,24.6,163.9c10.8,40.2,26.2,77.5,32.8,96.8
		c24.4,70.4,16.4,147.1,72.5,338.7c32.6,108.3,78.5,343.6,23.6,434.6c-72.9,120.9-149.3,195.8-141.2,205.2
		c107.7,132.1,304.6,194.1,453.9,180.4c10.5-1,17.2-162.2,100.5-325.7c29.8-56,97.2-112.7,156-194.6c72.7-101.1,85.6-178.5,95-216.2
		c34.9-144,69-204.2,74.9-278c7.5-104,60.7-183.6,34.6-210C1054.4,3081.1,1023.3,3068.4,993.2,3075.5z M762.1,2657.5
		c23.8,17.4-15.3,117.6-43.7,178.9c19-66.4,35-129.4,40.7-181C760.2,2656,761.2,2656.7,762.1,2657.5z M1019.2,3306.2
		c-3,32.6-13.8,66.7-24.2,99.1c-57.6,177.8-50.7,179.3-65.7,226.6C869.6,3820,736,3883.4,678.8,4009.5
		c-58.5,131.6-77.5,269.1-81.4,295.1c-4.2-0.2-12.4-0.3-27.2-1.3c-302.3-19.7-395.7-164.3-411.6-172.7
		c32.7-35.5,70.7-87.3,97.8-126.5c54.7-79.3,75-107.4,70.3-231.9c-3.4-88.8-23.8-196.9-44.5-262.4
		c-63.3-204.4-55.3-278.9-79.8-352.8c-21.2-59-49.9-116.1-63.7-258.3c2.8-0.4,8.3-0.9,17.8,0.5c28.9,4.3,43.8,26.1,54.3,53.2
		c22.8,59.3,2.5,45.2,69.8,173.8c4.3,8.3,12.2,23,18.1,32.6c-2.9,19-5.3,40.7-7,66.8c-0.2,3.2,4.5,3.6,4.9,0.5
		c20.7-165.6,57.9-185.9,87.4-272.5c7.6-22.7,98.1-296.3,119.2-286.2c92.1,44.8,5.6,158.4-17.4,272.7
		c-57.6,79.3-66,176.9-138.1,252.8c-1.2,1.3-1.2,3.3,0,4.6c5.8,5.9,43.9-39.9,69.1-94.3c34.8-73,50.7-137.4,107.6-193.7
		c-52.7,139.8-92.9,264.8-83.8,267.4c5.7,1.6,5.7-4.4,10.9-22c20.1-68,215.5-632.4,263.9-614.6c121,41.9-107,468.1-102.4,741.6
		c2.1,116.2,24,145.8,156.1,205.8c0.2,0.1,0.4,0.2,0.7,0.2c-4.1,7.6-8.4,15-12.9,22.1c-2.1,3.4,2.8,6.7,5.1,3.4
		c-0.6,0.8,14.2-19.2,30.3-51.2c54.5-107.1,78.2-244.8,139.1-322.1c31.7-40.2,75.7-65.7,119.1-38.1
		C1060,3112.7,1024.6,3235.6,1019.2,3306.2z"/>
	<path class="st5" d="M162.9,2919.9c5.8,28.7,12.7,50.5-4.7,53.6c-27.7,4.9-34.1-99.7-23.7-102.4
		C143.1,2868.9,157.1,2891.2,162.9,2919.9z"/>
	<path class="st5" d="M521.6,2715.2c-12.9,28.4-26,41.4-43.5,35c-17.5-6.4-11.7-30.4-2-53.5C518.4,2596.8,573.1,2601.3,521.6,2715.2
		z"/>
	<path class="st5" d="M718.8,2592.5c-12.9,28.4-26,41.4-43.5,35c-17.5-6.4-11.7-30.4-2-53.5C715.7,2474,770.4,2478.5,718.8,2592.5z"
		/>
	<path class="st5" d="M750.2,2700.9c-19.9,44,1-1.4,3.9-81.1c0.1-3.7,7.2-8.9,10.2-7.9C777.9,2615.9,765.2,2667.6,750.2,2700.9z"/>
	<path class="st5" d="M1055.2,3152.3c-10.2,36.7-27.4,66.6-55.2,57.9c-81.9-25.6,36.6-192.8,64.6-182.6
		C1083.8,3034.5,1068.1,3106.1,1055.2,3152.3z"/>
	<g>
		<g>
			<path class="st0" d="M162.2,3062.1l-1.2-15c21-1.7,55.4-16.4,69.5-29.7l10.3,10.9C222.7,3045.5,184.4,3060.3,162.2,3062.1z"/>
		</g>
	</g>
	<path class="st0" d="M476.4,3075.9c0,0,0.2,0.3,0.5,0.9c0.2,0.3,0.4,0.7,0.6,0.9c0.2,0.3,0.4,0.6,0.7,1c1.2,1.6,3.1,3.7,6.1,5.1
		c1.5,0.7,3.3,1.1,5.4,1.3c1.1,0.1,2.2,0.1,3.4,0c1.2-0.1,2.4-0.3,3.8-0.6c5.2-1.2,11.3-4.1,17.1-8.3c5.9-4.2,11.8-9.8,16.7-16.5
		c4.9-6.6,9-14.5,9.5-22.1c0.4-4.2,0-8.3-1.1-10.6c-0.6-1.2-1.2-1.9-2-2.5c-0.8-0.6-2.1-1.1-3.7-1.5c-0.8-0.2-1.7-0.3-2.7-0.3
		l-0.4,0l-0.2,0l-0.1,0c-0.3,0,0.3,0,0.2,0l-0.5,0l-0.2,0c-0.1,0-0.2,0-0.2,0c-0.1,0,0,0-0.1,0c-0.1,0-0.3,0-0.4,0
		c-0.9,0.1-1.8,0.2-2.9,0.8c-1.1,0.6-2.4,1.7-3.5,3.2c-1.1,1.5-1.9,3.4-2.4,5.5c-0.1,0.3-0.1,0.5-0.2,0.8l0,0.2l0,0.1
		c0,0,0,0.2,0-0.1l-0.1,0.5l-0.1,1l-0.1,0.7c-0.1,0.4-0.1,1-0.1,1.5c0,0.5,0,1.1,0,1.6c0,2.2,0.3,4.5,0.7,6.8
		c0.8,4.6,2.4,9.2,4.3,13.5c3.9,8.8,9.7,16.6,16.2,23.1c6.6,6.5,14.1,11.4,21.8,14.9c7.7,3.5,15.5,5.5,22.9,6.5
		c3.7,0.5,7.3,0.8,10.7,0.8c3.4,0,6.7-0.1,9.7-0.3c6.1-0.5,11.4-1.4,15.8-2.4c2.2-0.4,4.1-1,5.8-1.4c1.7-0.5,3.1-0.9,4.2-1.2
		c2.3-0.7,3.5-1.1,3.5-1.1l0.2-0.1c4.2-1.3,8.7,1,10,5.3c1.3,4.2-1,8.7-5.3,10c-0.1,0-0.2,0.1-0.3,0.1c0,0-1.4,0.4-3.9,1.1
		c-1.3,0.3-2.9,0.7-4.7,1.2c-1.9,0.4-4,0.9-6.5,1.4c-4.9,0.9-10.9,1.8-17.8,2.3c-7,0.4-14.9,0.3-23.5-1c-8.6-1.3-17.8-3.7-26.9-7.9
		c-9.1-4.2-18-10.2-25.9-17.8c-7.8-7.6-14.6-16.9-19.4-27.4c-2.4-5.3-4.3-10.9-5.5-16.8c-0.6-3-1-6-1.1-9.2c0-1.6,0-3.1,0.1-4.9
		l0.1-1.3l0.1-1l0.1-0.5l0.1-0.8c0.1-0.4,0.1-0.8,0.2-1.2c0.6-3.2,1.5-6.4,2.9-9.7c1.4-3.2,3.3-6.5,6.4-9.4c1.5-1.4,3.3-2.7,5.3-3.7
		c2-1,4.1-1.7,6.3-2c0.5-0.1,1.1-0.1,1.6-0.2c0.6,0,1.2-0.1,1.8-0.1l1.1,0c0,0,0.6,0,0.4,0l0.2,0l0.3,0l0.6,0.1
		c1.7,0.2,3.4,0.4,5.2,0.9c1.8,0.4,3.6,1,5.4,1.8c1.8,0.8,3.6,1.9,5.2,3.1c3.3,2.6,5.9,6.2,7.4,9.7c1.5,3.6,2.1,7.1,2.3,10.4
		c0.2,3.3,0,6.3-0.3,9.2l-0.1,0.5l-0.1,0.6l-0.2,1.2c-0.1,0.8-0.3,1.5-0.5,2.3c-0.4,1.5-0.8,3-1.2,4.4c-0.9,2.8-2.1,5.5-3.3,8
		c-2.5,5-5.5,9.4-8.8,13.3c-3.2,3.9-6.7,7.5-10.3,10.6c-3.6,3.1-7.3,5.9-11,8.2c-7.5,4.7-15.3,7.9-22.9,9.1
		c-1.9,0.3-3.8,0.5-5.7,0.5c-1.9,0-3.7-0.1-5.5-0.4c-3.5-0.6-6.8-1.7-9.4-3.3c-2.7-1.5-4.7-3.3-6.3-5c-1.5-1.7-2.6-3.3-3.4-4.6
		c-0.4-0.6-0.7-1.3-1-1.8c-0.3-0.6-0.4-0.9-0.6-1.2c-0.3-0.6-0.4-0.9-0.4-0.9c-1.2-2.7-0.1-5.8,2.6-7.1
		C472.1,3072.6,475,3073.5,476.4,3075.9z"/>
	
		<ellipse transform="matrix(0.9252 -0.3796 0.3796 0.9252 -974.4593 445.183)" class="st5" cx="641.7" cy="2693.8" rx="13.4" ry="13.4"/>
	
		<ellipse transform="matrix(0.6543 -0.7563 0.7563 0.6543 -1872.788 1419.0211)" class="st5" cx="615.6" cy="2757.8" rx="13.4" ry="13.4"/>
	
		<ellipse transform="matrix(0.9252 -0.3796 0.3796 0.9252 -1026.2474 437.1221)" class="st5" cx="595.4" cy="2821.1" rx="13.4" ry="13.4"/>
	
		<ellipse transform="matrix(0.9252 -0.3796 0.3796 0.9252 -1032.7361 384.4529)" class="st0" cx="458.6" cy="2811.2" rx="13.4" ry="13.4"/>
</g>
<polygon class="st1" points="4203.4,656.6 4197.4,631.2 4171.9,625.2 4197.4,619.2 4203.4,593.7 4209.4,619.2 4234.8,625.2 
	4209.4,631.2 "/>
<polygon class="st1" points="3410.9,3809.7 3405,3784.2 3379.5,3778.2 3405,3772.3 3410.9,3746.8 3416.9,3772.3 3442.4,3778.2 
	3416.9,3784.2 "/>
<g>
	<path class="st4" d="M3737.9,2657.5c0.9-0.8,1.9-1.5,3-2c5.7,51.6,21.7,114.6,40.7,181C3753.1,2775.1,3714.1,2674.9,3737.9,2657.5z
		"/>
	<path class="st4" d="M3568.6,3140.1c60.9,77.3,84.7,215,139.1,322.1c16.1,31.9,30.9,52,30.3,51.2c2.3,3.3,7.3,0,5.1-3.4
		c-4.5-7.1-8.8-14.5-12.9-22.1c0.2-0.1,0.4-0.1,0.7-0.2c132.1-60,154.1-89.6,156.1-205.8c4.6-273.4-223.4-699.6-102.4-741.6
		c48.5-17.8,243.8,546.5,263.9,614.6c5.2,17.6,5.2,23.6,10.9,22c9.1-2.5-31.1-127.6-83.8-267.4c56.9,56.3,72.9,120.7,107.6,193.7
		c25.2,54.4,63.3,100.3,69.1,94.3c1.2-1.3,1.2-3.3,0-4.6c-72.1-75.9-80.5-173.4-138.1-252.8c-23-114.3-109.6-227.9-17.4-272.7
		c21.1-10.1,111.6,263.5,119.2,286.2c29.5,86.7,66.7,107,87.4,272.5c0.4,3.2,5.1,2.7,4.9-0.5c-1.8-26.1-4.1-47.7-7-66.8
		c5.8-9.6,13.8-24.4,18.1-32.6c67.3-128.6,47-114.5,69.8-173.8c10.4-27.1,25.4-48.9,54.3-53.2c9.4-1.4,15-0.8,17.8-0.5
		c-13.8,142.2-42.5,199.3-63.7,258.3c-24.4,73.9-16.5,148.4-79.8,352.8c-20.7,65.5-41.1,173.6-44.5,262.4
		c-4.7,124.5,15.6,152.6,70.3,231.9c27.1,39.2,65.1,90.9,97.8,126.5c-15.9,8.4-109.3,152.9-411.6,172.7c-14.8,1.1-23.1,1.2-27.2,1.3
		c-3.8-26-22.9-163.6-81.4-295.1c-57.2-126.1-190.9-189.5-250.5-377.6c-15.1-47.3-8.1-48.8-65.7-226.6
		c-10.4-32.4-21.2-66.6-24.2-99.1c-5.4-70.5-40.8-193.5-31.3-204.2C3492.9,3074.4,3536.9,3099.9,3568.6,3140.1z"/>
	<path class="st0" d="M3437,3089.5c-26.1,26.4,27.1,106,34.6,210c5.9,73.7,40,133.9,74.9,278c9.4,37.7,22.3,115.1,95,216.2
		c58.8,81.9,126.2,138.6,156,194.6c83.3,163.5,90,324.8,100.5,325.7c149.3,13.7,346.2-48.3,453.9-180.4c8-9.4-68.3-84.3-141.2-205.2
		c-54.9-91.1-9-326.3,23.6-434.6c56.1-191.5,48.1-268.3,72.5-338.7c6.6-19.3,22-56.6,32.8-96.8c17.7-64.3,30.3-163.4,24.6-163.9
		c-9-0.4-36.4-5.5-59.5,19.2c-26.5,28.2-33.1,79.5-46.7,116.2c-9,24.3-44.5,93.4-58.2,119.9c-16.1-92.4-49.2-123.4-115-317.3
		c-9.6-28.1-58.4-174.8-87.4-173.4c-5.6,0.3-33.8,14.3-44,40.5c-22.8,57,29.5,142.5,50,226.7c-10-12-21.3-23.5-34.5-34.4
		c-54-141.6-119.2-293.5-158.1-345.7c-9.5-12.6-15.5-18.2-26.5-15.1c-41.1,11.5-50.7,58-43.7,123.1c-42.7,13,6.9,142,47.2,204.4
		c33.5,115.1,73.3,237.4,82.2,326c4.2,43.9,7,148.2-9.8,187.3c-32.3,73.3-119.7,92.9-134.6,107.7c-74-144.5-95.2-375-219-403.9
		C3476.7,3068.4,3445.6,3081.1,3437,3089.5z M3740.9,2655.5c5.7,51.6,21.7,114.6,40.7,181c-28.4-61.3-67.5-161.5-43.7-178.9
		C3738.8,2656.7,3739.8,2656,3740.9,2655.5z M3449.5,3102c43.4-27.6,87.4-2.1,119.1,38.1c60.9,77.3,84.7,215,139.1,322.1
		c16.1,31.9,30.9,52,30.3,51.2c2.3,3.3,7.3,0,5.1-3.4c-4.5-7.1-8.8-14.5-12.9-22.1c0.2-0.1,0.4-0.1,0.7-0.2
		c132.1-60,154.1-89.6,156.1-205.8c4.6-273.4-223.4-699.6-102.4-741.6c48.5-17.8,243.8,546.5,263.9,614.6c5.2,17.6,5.2,23.6,10.9,22
		c9.1-2.5-31.1-127.6-83.8-267.4c56.9,56.3,72.9,120.7,107.6,193.7c25.2,54.4,63.3,100.3,69.1,94.3c1.2-1.3,1.2-3.3,0-4.6
		c-72.1-75.9-80.5-173.4-138.1-252.8c-23-114.3-109.6-227.9-17.4-272.7c21.1-10.1,111.6,263.5,119.2,286.2
		c29.5,86.7,66.7,107,87.4,272.5c0.4,3.2,5.1,2.7,4.9-0.5c-1.8-26.1-4.1-47.7-7-66.8c5.8-9.6,13.8-24.4,18.1-32.6
		c67.3-128.6,47-114.5,69.8-173.8c10.4-27.1,25.4-48.9,54.3-53.2c9.4-1.4,15-0.8,17.8-0.5c-13.8,142.2-42.5,199.3-63.7,258.3
		c-24.4,73.9-16.5,148.4-79.8,352.8c-20.7,65.5-41.1,173.6-44.5,262.4c-4.7,124.5,15.6,152.6,70.3,231.9
		c27.1,39.2,65.1,90.9,97.8,126.5c-15.9,8.4-109.3,152.9-411.6,172.7c-14.8,1.1-23.1,1.2-27.2,1.3c-3.8-26-22.9-163.6-81.4-295.1
		c-57.2-126.1-190.9-189.5-250.5-377.6c-15.1-47.3-8.1-48.8-65.7-226.6c-10.4-32.4-21.2-66.6-24.2-99.1
		C3475.4,3235.6,3440,3112.7,3449.5,3102z"/>
	<path class="st5" d="M4337.1,2919.9c-5.8,28.7-12.7,50.5,4.7,53.6c27.7,4.9,34.1-99.7,23.7-102.4
		C4356.9,2868.9,4342.9,2891.2,4337.1,2919.9z"/>
	<path class="st5" d="M3978.4,2715.2c12.9,28.4,26,41.4,43.5,35c17.5-6.4,11.7-30.4,2-53.5
		C3981.6,2596.8,3926.9,2601.3,3978.4,2715.2z"/>
	<path class="st5" d="M3781.2,2592.5c12.9,28.4,26,41.4,43.5,35c17.5-6.4,11.7-30.4,2-53.5C3784.3,2474,3729.6,2478.5,3781.2,2592.5
		z"/>
	<path class="st5" d="M3749.8,2700.9c19.9,44-1-1.4-3.9-81.1c-0.1-3.7-7.2-8.9-10.2-7.9C3722.1,2615.9,3734.8,2667.6,3749.8,2700.9z
		"/>
	<g>
		<g>
			<g>
				<path class="st0" d="M4252.6,3199.9c-0.7,0-1.4-0.1-2.1-0.3c-3.4-1.2-5.2-4.8-4.1-8.2l50.5-148.7c1.2-3.4,4.8-5.2,8.2-4.1
					c3.4,1.2,5.2,4.8,4.1,8.2l-50.5,148.7C4257.9,3198.2,4255.3,3199.9,4252.6,3199.9z"/>
			</g>
			<g>
				<path class="st0" d="M4331.1,3116.3c-0.7,0-1.4-0.1-2.1-0.3l-89.7-30.5c-3.4-1.2-5.2-4.8-4.1-8.2c1.2-3.4,4.8-5.2,8.2-4.1
					l89.7,30.5c3.4,1.2,5.2,4.8,4.1,8.2C4336.3,3114.6,4333.8,3116.3,4331.1,3116.3z"/>
			</g>
		</g>
	</g>
	<g>
		<g>
			<path class="st0" d="M3776.9,2775.2c-2.8,0-5.3-1.8-6.2-4.5c-1.1-3.4,0.8-7.1,4.2-8.2l120.8-38.3c3.4-1.1,7.1,0.8,8.2,4.2
				c1.1,3.4-0.8,7.1-4.2,8.2l-120.8,38.3C3778.3,2775.1,3777.6,2775.2,3776.9,2775.2z"/>
		</g>
	</g>
	<g>
		<g>
			<path class="st0" d="M3783.8,2800.7c-2.8,0-5.4-1.8-6.2-4.6c-1-3.4,0.9-7.1,4.3-8.1l120.6-36.4c3.4-1,7.1,0.9,8.1,4.3
				c1,3.4-0.9,7.1-4.3,8.1l-120.6,36.4C3785.1,2800.6,3784.4,2800.7,3783.8,2800.7z"/>
		</g>
	</g>
	<g>
		<g>
			<path class="st0" d="M3837.4,2782.5c-2.8,0-5.4-1.8-6.2-4.7l-7.1-24.2c-1-3.4,1-7.1,4.4-8.1c3.4-1,7.1,1,8.1,4.4l7.1,24.2
				c1,3.4-1,7.1-4.4,8.1C3838.6,2782.4,3838,2782.5,3837.4,2782.5z"/>
		</g>
	</g>
	<g>
		<g>
			<path class="st0" d="M3879.2,2770.4c-2.7,0-5.2-1.7-6.2-4.4l-8.5-24.9c-1.2-3.4,0.7-7.1,4.1-8.3c3.4-1.2,7.1,0.7,8.3,4.1
				l8.5,24.9c1.2,3.4-0.7,7.1-4.1,8.3C3880.6,2770.3,3879.9,2770.4,3879.2,2770.4z"/>
		</g>
	</g>
	<g>
		<g>
			<path class="st0" d="M3798.1,2790.3c-2.8,0-5.4-1.8-6.2-4.6l-6-19.9c-1-3.4,0.9-7.1,4.3-8.1c3.4-1,7.1,0.9,8.1,4.3l6,19.9
				c1,3.4-0.9,7.1-4.3,8.1C3799.3,2790.2,3798.7,2790.3,3798.1,2790.3z"/>
		</g>
	</g>
	<g>
		<g>
			<g>
				
					<rect x="3867.7" y="3121.3" transform="matrix(0.9657 -0.2595 0.2595 0.9657 -677.0693 1133.3615)" class="st5" width="173.4" height="20"/>
			</g>
		</g>
	</g>
	<path class="st5" d="M4038.4,3138.8c-62.8-63.6-60.8-64.2-68.3-62.2c-7.4,1.9-4.8-0.7-29.1,87.7c-2,7.2,4.6,13.8,11.8,11.9
		c86.5-22.6,86-20.6,88-28C4041.7,3144.8,4040.8,3141.3,4038.4,3138.8z"/>
	<g>
		<g>
			
				<rect x="3995.9" y="2861.8" transform="matrix(0.9409 -0.3387 0.3387 0.9409 -733.7367 1538.5469)" class="st0" width="91.9" height="20"/>
		</g>
	</g>
	<path class="st5" d="M3451.1,3152.3c10.2,36.7,27.4,66.6,55.2,57.9c81.9-25.6-36.6-192.8-64.6-182.6
		C3422.5,3034.5,3438.2,3106.1,3451.1,3152.3z"/>
</g>
<polygon class="st1" points="1150.6,1472.2 1144.6,1446.7 1119.1,1440.8 1144.6,1434.8 1150.6,1409.3 1156.6,1434.8 1182,1440.8 
	1156.6,1446.7 "/>
</svg>
